<svg width="532" height="267" viewBox="0 0 532 267" fill="none" xmlns="http://www.w3.org/2000/svg">
<path d="M50.4025 0.121584C50.4025 4.46215e-07 50.3079 0 50.2809 0C50.2539 0 50.1999 -3.36766e-07 50.0918 0.135092L49.1596 1.25637C49.0921 1.14829 48.8219 0.675467 48.295 0.364752C47.7141 2.0206e-07 47.1332 0 46.9306 0C44.0396 0 41 2.94504 41 6.13324C41 8.36228 42.5401 9.79427 44.5665 9.79427C45.5391 9.79427 46.7685 9.47005 47.444 8.61896C47.5926 9.13231 47.8898 9.49707 47.9843 9.49707C48.0519 9.49707 48.0654 9.45654 48.0789 9.45654C48.0924 9.42952 48.2005 8.95669 48.268 8.71352L48.4842 7.84893C48.5922 7.40312 48.6463 7.21399 48.7409 6.80871C48.8759 6.29535 48.903 6.25482 49.646 6.24131C49.7 6.24131 49.8621 6.24131 49.8621 5.98464C49.8621 5.84954 49.727 5.84954 49.6865 5.84954C49.4568 5.84954 49.2002 5.87656 48.957 5.87656H48.2275C47.6601 5.87656 47.0657 5.84954 46.5118 5.84954C46.3902 5.84954 46.2281 5.84954 46.2281 6.09271C46.2281 6.22781 46.3362 6.22781 46.3362 6.24131H46.6739C47.7412 6.24131 47.7412 6.34939 47.7412 6.55203C47.7412 6.56554 47.4845 7.92998 47.2278 8.33526C46.7145 9.09179 45.6472 9.4025 44.8502 9.4025C43.8099 9.4025 42.1213 8.86213 42.1213 6.52501C42.1213 5.61989 42.4455 3.55296 43.7559 2.0264C44.607 1.05373 45.8634 0.391771 47.0522 0.391771C48.6463 0.391771 49.2137 1.75621 49.2137 2.99907C49.2137 3.21522 49.1596 3.51243 49.1596 3.70156C49.1596 3.82314 49.2947 3.82314 49.3353 3.82314C49.4839 3.82314 49.4974 3.80963 49.5514 3.56647L50.4025 0.121584Z" fill="#355FB3"/>
<path d="M55.1626 8.66398C55.1626 7.70031 55.0635 7.11491 54.7663 6.53851C54.37 5.74596 53.6405 5.54782 53.1452 5.54782C52.0104 5.54782 51.5961 6.39441 51.47 6.64658C51.1458 7.30404 51.1278 8.19565 51.1278 8.66398C51.1278 9.25839 51.1548 10.168 51.5871 10.8885C52.0014 11.555 52.6678 11.7261 53.1452 11.7261C53.5775 11.7261 54.352 11.591 54.8023 10.6994C55.1355 10.0509 55.1626 9.24938 55.1626 8.66398ZM53.1452 11.4739C52.839 11.4739 52.2175 11.3298 52.0284 10.3842C51.9293 9.87081 51.9293 9.02423 51.9293 8.5559C51.9293 7.93447 51.9293 7.30404 52.0284 6.80869C52.2175 5.89006 52.92 5.8 53.1452 5.8C53.4514 5.8 54.0728 5.9531 54.2529 6.77267C54.361 7.26801 54.361 7.94348 54.361 8.5559C54.361 9.08727 54.361 9.89783 54.2529 10.4022C54.0638 11.3478 53.4424 11.4739 53.1452 11.4739Z" fill="#355FB3"/>
<path d="M90.4025 0.121584C90.4025 4.46215e-07 90.3079 0 90.2809 0C90.2539 0 90.1999 -3.36766e-07 90.0918 0.135092L89.1596 1.25637C89.0921 1.14829 88.8219 0.675467 88.2951 0.364752C87.7141 2.0206e-07 87.1332 0 86.9306 0C84.0396 0 81 2.94504 81 6.13324C81 8.36228 82.5401 9.79427 84.5665 9.79427C85.5391 9.79427 86.7685 9.47005 87.444 8.61896C87.5926 9.13231 87.8898 9.49707 87.9843 9.49707C88.0519 9.49707 88.0654 9.45654 88.0789 9.45654C88.0924 9.42952 88.2005 8.95669 88.268 8.71352L88.4842 7.84893C88.5923 7.40312 88.6463 7.21399 88.7409 6.80871C88.876 6.29535 88.903 6.25482 89.646 6.24131C89.7 6.24131 89.8621 6.24131 89.8621 5.98464C89.8621 5.84954 89.727 5.84954 89.6865 5.84954C89.4569 5.84954 89.2002 5.87656 88.957 5.87656H88.2275C87.6601 5.87656 87.0657 5.84954 86.5118 5.84954C86.3902 5.84954 86.2281 5.84954 86.2281 6.09271C86.2281 6.22781 86.3362 6.22781 86.3362 6.24131H86.6739C87.7412 6.24131 87.7412 6.34939 87.7412 6.55203C87.7412 6.56554 87.4845 7.92998 87.2278 8.33526C86.7145 9.09179 85.6472 9.4025 84.8502 9.4025C83.81 9.4025 82.1213 8.86213 82.1213 6.52501C82.1213 5.61989 82.4455 3.55296 83.7559 2.0264C84.607 1.05373 85.8634 0.391771 87.0522 0.391771C88.6463 0.391771 89.2137 1.75621 89.2137 2.99907C89.2137 3.21522 89.1596 3.51243 89.1596 3.70156C89.1596 3.82314 89.2947 3.82314 89.3353 3.82314C89.4839 3.82314 89.4974 3.80963 89.5514 3.56647L90.4025 0.121584Z" fill="#B33535"/>
<path d="M93.5865 5.8C93.5865 5.55683 93.5685 5.54782 93.3253 5.54782C92.9561 5.90807 92.4787 6.12422 91.6231 6.12422V6.42143C91.8663 6.42143 92.3526 6.42143 92.875 6.17826V10.7985C92.875 11.1317 92.848 11.2398 91.9924 11.2398H91.6772V11.537C92.0464 11.5099 92.821 11.5099 93.2262 11.5099C93.6315 11.5099 94.4151 11.5099 94.7843 11.537V11.2398H94.4691C93.6135 11.2398 93.5865 11.1317 93.5865 10.7985V5.8Z" fill="#B33535"/>
<path d="M125.403 0.121584C125.403 4.46215e-07 125.308 0 125.281 0C125.254 0 125.2 -3.36766e-07 125.092 0.135092L124.16 1.25637C124.092 1.14829 123.822 0.675467 123.295 0.364752C122.714 2.0206e-07 122.133 0 121.931 0C119.04 0 116 2.94504 116 6.13324C116 8.36228 117.54 9.79427 119.566 9.79427C120.539 9.79427 121.768 9.47005 122.444 8.61896C122.593 9.13231 122.89 9.49707 122.984 9.49707C123.052 9.49707 123.065 9.45654 123.079 9.45654C123.092 9.42952 123.2 8.95669 123.268 8.71352L123.484 7.84893C123.592 7.40312 123.646 7.21399 123.741 6.80871C123.876 6.29535 123.903 6.25482 124.646 6.24131C124.7 6.24131 124.862 6.24131 124.862 5.98464C124.862 5.84954 124.727 5.84954 124.687 5.84954C124.457 5.84954 124.2 5.87656 123.957 5.87656H123.228C122.66 5.87656 122.066 5.84954 121.512 5.84954C121.39 5.84954 121.228 5.84954 121.228 6.09271C121.228 6.22781 121.336 6.22781 121.336 6.24131H121.674C122.741 6.24131 122.741 6.34939 122.741 6.55203C122.741 6.56554 122.484 7.92998 122.228 8.33526C121.714 9.09179 120.647 9.4025 119.85 9.4025C118.81 9.4025 117.121 8.86213 117.121 6.52501C117.121 5.61989 117.446 3.55296 118.756 2.0264C119.607 1.05373 120.863 0.391771 122.052 0.391771C123.646 0.391771 124.214 1.75621 124.214 2.99907C124.214 3.21522 124.16 3.51243 124.16 3.70156C124.16 3.82314 124.295 3.82314 124.335 3.82314C124.484 3.82314 124.497 3.80963 124.551 3.56647L125.403 0.121584Z" fill="#22661E"/>
<path d="M128.298 9.69969C128.442 9.5646 128.821 9.26739 128.965 9.14131C129.523 8.62795 130.055 8.13261 130.055 7.31304C130.055 6.2413 129.154 5.54782 128.028 5.54782C126.947 5.54782 126.236 6.36739 126.236 7.16894C126.236 7.61025 126.587 7.67329 126.713 7.67329C126.902 7.67329 127.182 7.5382 127.182 7.19596C127.182 6.72764 126.731 6.72764 126.623 6.72764C126.884 6.07018 127.488 5.84503 127.929 5.84503C128.767 5.84503 129.199 6.55652 129.199 7.31304C129.199 8.24969 128.541 8.93416 127.479 10.0239L126.344 11.1947C126.236 11.2938 126.236 11.3118 126.236 11.537H129.793L130.055 9.92485H129.775C129.748 10.105 129.676 10.5553 129.568 10.7264C129.514 10.7985 128.83 10.7985 128.686 10.7985H127.082L128.298 9.69969Z" fill="#22661E"/>
<rect x="24" y="191" width="38" height="48" transform="rotate(-90 24 191)" stroke="#355FB3" stroke-width="2"/>
<path d="M46.0792 170.499L44.8093 167.54C44.9849 167.216 45.3902 167.162 45.5523 167.148C45.6334 167.148 45.782 167.135 45.782 166.905C45.782 166.757 45.6604 166.757 45.5794 166.757C45.3497 166.757 45.0795 166.784 44.8499 166.784H44.0663C43.2422 166.784 42.6478 166.757 42.6343 166.757C42.5262 166.757 42.3912 166.757 42.3912 167.013C42.3912 167.148 42.5127 167.148 42.6884 167.148C43.4719 167.148 43.5259 167.283 43.661 167.608L45.2686 171.363L42.3371 174.497C41.8508 175.024 41.2699 175.538 40.2702 175.592C40.1081 175.605 40 175.605 40 175.848C40 175.889 40.0135 175.983 40.1621 175.983C40.3512 175.983 40.5539 175.956 40.743 175.956H41.378C41.8103 175.956 42.2831 175.983 42.7019 175.983C42.7964 175.983 42.9585 175.983 42.9585 175.74C42.9585 175.605 42.864 175.592 42.7829 175.592C42.5127 175.565 42.3371 175.416 42.3371 175.2C42.3371 174.97 42.4992 174.808 42.891 174.403L44.0933 173.092C44.3905 172.782 45.1065 171.998 45.4037 171.701L46.8222 175.024C46.8357 175.051 46.8898 175.186 46.8898 175.2C46.8898 175.321 46.5926 175.565 46.1603 175.592C46.0792 175.592 45.9306 175.605 45.9306 175.848C45.9306 175.983 46.0657 175.983 46.1332 175.983C46.3629 175.983 46.6331 175.956 46.8627 175.956H48.3488C48.5919 175.956 48.8486 175.983 49.0783 175.983C49.1728 175.983 49.3214 175.983 49.3214 175.727C49.3214 175.592 49.1864 175.592 49.0648 175.592C48.2542 175.578 48.2272 175.511 47.9975 175.011L46.2143 170.823L47.93 168.986C48.0651 168.85 48.3758 168.513 48.4974 168.378C49.0783 167.77 49.6187 167.216 50.7129 167.148C50.848 167.135 50.9831 167.135 50.9831 166.905C50.9831 166.757 50.8615 166.757 50.8075 166.757C50.6183 166.757 50.4157 166.784 50.2266 166.784H49.6051C49.1728 166.784 48.7 166.757 48.2812 166.757C48.1867 166.757 48.0245 166.757 48.0245 167C48.0245 167.135 48.1191 167.148 48.2002 167.148C48.4163 167.175 48.646 167.283 48.646 167.54L48.6325 167.567C48.619 167.662 48.5919 167.797 48.4433 167.959L46.0792 170.499Z" fill="#355FB3"/>
<path d="M55.0445 175.137C55.0445 174.173 54.9455 173.588 54.6483 173.011C54.252 172.219 53.5225 172.021 53.0271 172.021C51.8923 172.021 51.4781 172.867 51.352 173.119C51.0277 173.777 51.0097 174.668 51.0097 175.137C51.0097 175.731 51.0368 176.641 51.4691 177.361C51.8833 178.028 52.5498 178.199 53.0271 178.199C53.4594 178.199 54.234 178.064 54.6843 177.172C55.0175 176.524 55.0445 175.722 55.0445 175.137ZM53.0271 177.947C52.7209 177.947 52.0995 177.803 51.9104 176.857C51.8113 176.344 51.8113 175.497 51.8113 175.029C51.8113 174.407 51.8113 173.777 51.9104 173.282C52.0995 172.363 52.802 172.273 53.0271 172.273C53.3333 172.273 53.9548 172.426 54.1349 173.246C54.243 173.741 54.243 174.416 54.243 175.029C54.243 175.56 54.243 176.371 54.1349 176.875C53.9458 177.821 53.3243 177.947 53.0271 177.947Z" fill="#355FB3"/>
<rect x="74" y="191" width="38" height="28" transform="rotate(-90 74 191)" stroke="#B33535" stroke-width="2"/>
<path d="M87.0792 169.782L85.8093 166.824C85.9849 166.5 86.3902 166.446 86.5523 166.432C86.6334 166.432 86.782 166.418 86.782 166.189C86.782 166.04 86.6604 166.04 86.5794 166.04C86.3497 166.04 86.0795 166.067 85.8499 166.067H85.0663C84.2422 166.067 83.6478 166.04 83.6343 166.04C83.5262 166.04 83.3912 166.04 83.3912 166.297C83.3912 166.432 83.5127 166.432 83.6884 166.432C84.4719 166.432 84.5259 166.567 84.661 166.891L86.2686 170.647L83.3371 173.781C82.8508 174.308 82.2699 174.821 81.2702 174.875C81.1081 174.889 81 174.889 81 175.132C81 175.173 81.0135 175.267 81.1621 175.267C81.3512 175.267 81.5539 175.24 81.743 175.24H82.378C82.8103 175.24 83.2831 175.267 83.7019 175.267C83.7964 175.267 83.9585 175.267 83.9585 175.024C83.9585 174.889 83.864 174.875 83.7829 174.875C83.5127 174.848 83.3371 174.7 83.3371 174.484C83.3371 174.254 83.4992 174.092 83.891 173.687L85.0933 172.376C85.3905 172.065 86.1065 171.282 86.4037 170.985L87.8222 174.308C87.8357 174.335 87.8898 174.47 87.8898 174.484C87.8898 174.605 87.5926 174.848 87.1603 174.875C87.0792 174.875 86.9306 174.889 86.9306 175.132C86.9306 175.267 87.0657 175.267 87.1332 175.267C87.3629 175.267 87.6331 175.24 87.8627 175.24H89.3488C89.5919 175.24 89.8486 175.267 90.0783 175.267C90.1728 175.267 90.3214 175.267 90.3214 175.01C90.3214 174.875 90.1864 174.875 90.0648 174.875C89.2542 174.862 89.2272 174.794 88.9975 174.294L87.2143 170.107L88.93 168.269C89.0651 168.134 89.3758 167.796 89.4974 167.661C90.0783 167.053 90.6187 166.5 91.7129 166.432C91.848 166.418 91.9831 166.418 91.9831 166.189C91.9831 166.04 91.8615 166.04 91.8075 166.04C91.6183 166.04 91.4157 166.067 91.2266 166.067H90.6051C90.1728 166.067 89.7 166.04 89.2812 166.04C89.1867 166.04 89.0245 166.04 89.0245 166.283C89.0245 166.418 89.1191 166.432 89.2002 166.432C89.4163 166.459 89.646 166.567 89.646 166.824L89.6325 166.851C89.619 166.945 89.5919 167.08 89.4433 167.243L87.0792 169.782Z" fill="#B33535"/>
<path d="M94.4684 171.557C94.4684 171.313 94.4504 171.304 94.2072 171.304C93.838 171.665 93.3607 171.881 92.5051 171.881V172.178C92.7482 172.178 93.2346 172.178 93.7569 171.935V176.555C93.7569 176.888 93.7299 176.996 92.8743 176.996H92.5591V177.294C92.9284 177.266 93.7029 177.266 94.1082 177.266C94.5135 177.266 95.297 177.266 95.6663 177.294V176.996H95.351C94.4954 176.996 94.4684 176.888 94.4684 176.555V171.557Z" fill="#B33535"/>
<rect x="104" y="191" width="38" height="38" transform="rotate(-90 104 191)" stroke="#3BB335" stroke-width="2"/>
<path d="M122.079 169.647L120.809 166.689C120.985 166.364 121.39 166.31 121.552 166.297C121.633 166.297 121.782 166.283 121.782 166.054C121.782 165.905 121.66 165.905 121.579 165.905C121.35 165.905 121.08 165.932 120.85 165.932H120.066C119.242 165.932 118.648 165.905 118.634 165.905C118.526 165.905 118.391 165.905 118.391 166.162C118.391 166.297 118.513 166.297 118.688 166.297C119.472 166.297 119.526 166.432 119.661 166.756L121.269 170.512L118.337 173.646C117.851 174.173 117.27 174.686 116.27 174.74C116.108 174.754 116 174.754 116 174.997C116 175.037 116.014 175.132 116.162 175.132C116.351 175.132 116.554 175.105 116.743 175.105H117.378C117.81 175.105 118.283 175.132 118.702 175.132C118.796 175.132 118.959 175.132 118.959 174.889C118.959 174.754 118.864 174.74 118.783 174.74C118.513 174.713 118.337 174.565 118.337 174.348C118.337 174.119 118.499 173.957 118.891 173.551L120.093 172.241C120.391 171.93 121.107 171.147 121.404 170.85L122.822 174.173C122.836 174.2 122.89 174.335 122.89 174.348C122.89 174.47 122.593 174.713 122.16 174.74C122.079 174.74 121.931 174.754 121.931 174.997C121.931 175.132 122.066 175.132 122.133 175.132C122.363 175.132 122.633 175.105 122.863 175.105H124.349C124.592 175.105 124.849 175.132 125.078 175.132C125.173 175.132 125.321 175.132 125.321 174.875C125.321 174.74 125.186 174.74 125.065 174.74C124.254 174.727 124.227 174.659 123.998 174.159L122.214 169.971L123.93 168.134C124.065 167.999 124.376 167.661 124.497 167.526C125.078 166.918 125.619 166.364 126.713 166.297C126.848 166.283 126.983 166.283 126.983 166.054C126.983 165.905 126.862 165.905 126.807 165.905C126.618 165.905 126.416 165.932 126.227 165.932H125.605C125.173 165.932 124.7 165.905 124.281 165.905C124.187 165.905 124.025 165.905 124.025 166.148C124.025 166.283 124.119 166.297 124.2 166.297C124.416 166.324 124.646 166.432 124.646 166.689L124.632 166.716C124.619 166.81 124.592 166.945 124.443 167.107L122.079 169.647Z" fill="#22661E"/>
<path d="M129.18 175.321C129.324 175.186 129.703 174.889 129.847 174.763C130.405 174.249 130.936 173.754 130.936 172.934C130.936 171.863 130.036 171.169 128.91 171.169C127.829 171.169 127.118 171.989 127.118 172.79C127.118 173.232 127.469 173.295 127.595 173.295C127.784 173.295 128.063 173.16 128.063 172.817C128.063 172.349 127.613 172.349 127.505 172.349C127.766 171.692 128.37 171.466 128.811 171.466C129.649 171.466 130.081 172.178 130.081 172.934C130.081 173.871 129.423 174.556 128.361 175.645L127.226 176.816C127.118 176.915 127.118 176.933 127.118 177.158H130.675L130.936 175.546H130.657C130.63 175.726 130.558 176.177 130.45 176.348C130.396 176.42 129.712 176.42 129.567 176.42H127.964L129.18 175.321Z" fill="#22661E"/>
<rect x="24" y="23" width="48" height="48" stroke="#355FB3" stroke-width="2"/>
<path d="M42.8373 48.1461C42.3644 48.9432 41.9051 49.2134 41.2567 49.2539C41.1081 49.2674 41 49.2674 41 49.5106C41 49.5916 41.0675 49.6457 41.1621 49.6457C41.4053 49.6457 42.0132 49.6187 42.2564 49.6187C42.6481 49.6187 43.0804 49.6457 43.4587 49.6457C43.5398 49.6457 43.7019 49.6457 43.7019 49.389C43.7019 49.2674 43.5938 49.2539 43.5127 49.2539C43.202 49.2269 42.9453 49.1188 42.9453 48.7946C42.9453 48.6054 43.0264 48.4568 43.202 48.1596L44.2287 46.4575H47.6736C47.6871 46.579 47.6871 46.6871 47.7006 46.8087C47.7412 47.1599 47.9033 48.5649 47.9033 48.8216C47.9033 49.2269 47.2143 49.2539 46.9981 49.2539C46.8495 49.2539 46.7009 49.2539 46.7009 49.4971C46.7009 49.6457 46.8225 49.6457 46.9036 49.6457C47.1332 49.6457 47.4034 49.6187 47.6331 49.6187H48.4031C49.2272 49.6187 49.8216 49.6457 49.8351 49.6457C49.9297 49.6457 50.0783 49.6457 50.0783 49.389C50.0783 49.2539 49.9567 49.2539 49.7541 49.2539C49.011 49.2539 48.9975 49.1323 48.957 48.727L48.1329 40.2972C48.1059 40.027 48.0519 40 47.9033 40C47.7682 40 47.6871 40.027 47.5655 40.2297L42.8373 48.1461ZM44.4584 46.0657L47.1738 41.5266L47.6331 46.0657H44.4584Z" fill="#355FB3"/>
<path d="M54.8609 48.7991C54.8609 47.8354 54.7618 47.25 54.4646 46.6736C54.0683 45.8811 53.3388 45.6829 52.8435 45.6829C51.7087 45.6829 51.2944 46.5295 51.1683 46.7817C50.8441 47.4391 50.8261 48.3308 50.8261 48.7991C50.8261 49.3935 50.8531 50.3031 51.2854 51.0236C51.6997 51.6901 52.3661 51.8612 52.8435 51.8612C53.2758 51.8612 54.0503 51.7261 54.5006 50.8345C54.8338 50.186 54.8609 49.3845 54.8609 48.7991ZM52.8435 51.609C52.5373 51.609 51.9158 51.4649 51.7267 50.5193C51.6276 50.0059 51.6276 49.1593 51.6276 48.691C51.6276 48.0696 51.6276 47.4391 51.7267 46.9438C51.9158 46.0252 52.6183 45.9351 52.8435 45.9351C53.1497 45.9351 53.7711 46.0882 53.9512 46.9078C54.0593 47.4031 54.0593 48.0786 54.0593 48.691C54.0593 49.2224 54.0593 50.0329 53.9512 50.5373C53.7621 51.4829 53.1407 51.609 52.8435 51.609Z" fill="#355FB3"/>
<rect x="74" y="73" width="28" height="28" stroke="#B33535" stroke-width="2"/>
<path d="M82.8373 89.1461C82.3644 89.9432 81.9051 90.2134 81.2567 90.2539C81.1081 90.2674 81 90.2674 81 90.5106C81 90.5916 81.0675 90.6457 81.1621 90.6457C81.4053 90.6457 82.0132 90.6187 82.2564 90.6187C82.6481 90.6187 83.0804 90.6457 83.4587 90.6457C83.5398 90.6457 83.7019 90.6457 83.7019 90.389C83.7019 90.2674 83.5938 90.2539 83.5127 90.2539C83.202 90.2269 82.9453 90.1188 82.9453 89.7946C82.9453 89.6054 83.0264 89.4568 83.202 89.1596L84.2287 87.4575H87.6736C87.6871 87.579 87.6871 87.6871 87.7006 87.8087C87.7412 88.1599 87.9033 89.5649 87.9033 89.8216C87.9033 90.2269 87.2143 90.2539 86.9981 90.2539C86.8495 90.2539 86.7009 90.2539 86.7009 90.4971C86.7009 90.6457 86.8225 90.6457 86.9036 90.6457C87.1332 90.6457 87.4034 90.6187 87.6331 90.6187H88.4031C89.2272 90.6187 89.8216 90.6457 89.8351 90.6457C89.9297 90.6457 90.0783 90.6457 90.0783 90.389C90.0783 90.2539 89.9567 90.2539 89.7541 90.2539C89.011 90.2539 88.9975 90.1323 88.957 89.727L88.1329 81.2972C88.1059 81.027 88.0519 81 87.9033 81C87.7682 81 87.6871 81.027 87.5655 81.2297L82.8373 89.1461ZM84.4584 87.0657L87.1738 82.5266L87.6331 87.0657H84.4584Z" fill="#B33535"/>
<path d="M93.2848 86.9351C93.2848 86.6919 93.2668 86.6829 93.0236 86.6829C92.6543 87.0432 92.177 87.2593 91.3214 87.2593V87.5565C91.5646 87.5565 92.0509 87.5565 92.5733 87.3134V91.9336C92.5733 92.2668 92.5463 92.3749 91.6907 92.3749H91.3755V92.6721C91.7447 92.645 92.5192 92.645 92.9245 92.645C93.3298 92.645 94.1133 92.645 94.4826 92.6721V92.3749H94.1674C93.3118 92.3749 93.2848 92.2668 93.2848 91.9336V86.9351Z" fill="#B33535"/>
<rect x="104" y="103" width="38" height="38" stroke="#3BB335" stroke-width="2"/>
<path d="M117.837 124.146C117.364 124.943 116.905 125.213 116.257 125.254C116.108 125.267 116 125.267 116 125.511C116 125.592 116.068 125.646 116.162 125.646C116.405 125.646 117.013 125.619 117.256 125.619C117.648 125.619 118.08 125.646 118.459 125.646C118.54 125.646 118.702 125.646 118.702 125.389C118.702 125.267 118.594 125.254 118.513 125.254C118.202 125.227 117.945 125.119 117.945 124.795C117.945 124.605 118.026 124.457 118.202 124.16L119.229 122.457H122.674C122.687 122.579 122.687 122.687 122.701 122.809C122.741 123.16 122.903 124.565 122.903 124.822C122.903 125.227 122.214 125.254 121.998 125.254C121.85 125.254 121.701 125.254 121.701 125.497C121.701 125.646 121.823 125.646 121.904 125.646C122.133 125.646 122.403 125.619 122.633 125.619H123.403C124.227 125.619 124.822 125.646 124.835 125.646C124.93 125.646 125.078 125.646 125.078 125.389C125.078 125.254 124.957 125.254 124.754 125.254C124.011 125.254 123.998 125.132 123.957 124.727L123.133 116.297C123.106 116.027 123.052 116 122.903 116C122.768 116 122.687 116.027 122.566 116.23L117.837 124.146ZM119.458 122.066L122.174 117.527L122.633 122.066H119.458Z" fill="#22661E"/>
<path d="M127.997 125.835C128.141 125.7 128.519 125.402 128.663 125.276C129.221 124.763 129.753 124.268 129.753 123.448C129.753 122.376 128.852 121.683 127.726 121.683C126.646 121.683 125.934 122.502 125.934 123.304C125.934 123.745 126.285 123.808 126.411 123.808C126.601 123.808 126.88 123.673 126.88 123.331C126.88 122.863 126.43 122.863 126.321 122.863C126.583 122.205 127.186 121.98 127.627 121.98C128.465 121.98 128.897 122.692 128.897 123.448C128.897 124.385 128.24 125.069 127.177 126.159L126.042 127.33C125.934 127.429 125.934 127.447 125.934 127.672H129.492L129.753 126.06H129.474C129.447 126.24 129.375 126.69 129.266 126.862C129.212 126.934 128.528 126.934 128.384 126.934H126.781L127.997 125.835Z" fill="#22661E"/>
<path d="M7.95898 124.377L7.95898 127.654L10 128.39L10 129.453L2.17969 126.467L2.17969 125.564L10 122.573L10 123.631L7.95898 124.377ZM7.11035 127.342L7.11035 124.684L3.45264 126.016L7.11035 127.342ZM7.0459 121.917C6.1543 121.917 5.43815 121.706 4.89746 121.284C4.35319 120.861 4.08105 120.308 4.08105 119.624C4.08105 118.944 4.3138 118.405 4.7793 118.007L1.75 118.007L1.75 117.014L10 117.014L10 117.927L9.37695 117.975C9.86393 118.373 10.1074 118.926 10.1074 119.635C10.1074 120.308 9.83171 120.858 9.28027 121.284C8.72884 121.706 8.00911 121.917 7.12109 121.917L7.0459 121.917ZM7.15869 120.924C7.81755 120.924 8.33317 120.788 8.70557 120.516C9.07796 120.243 9.26416 119.868 9.26416 119.388C9.26416 118.757 8.98128 118.297 8.41553 118.007L5.74609 118.007C5.19824 118.305 4.92432 118.761 4.92432 119.377C4.92432 119.864 5.1123 120.243 5.48828 120.516C5.86426 120.788 6.42106 120.924 7.15869 120.924ZM4.18848 114.441L10.6714 114.441C11.7886 114.441 12.3472 114.948 12.3472 115.961C12.3472 116.179 12.3149 116.382 12.2505 116.568L11.4556 116.568C11.4842 116.453 11.4985 116.303 11.4985 116.117C11.4985 115.895 11.4377 115.726 11.3159 115.612C11.1978 115.494 10.9901 115.435 10.6929 115.435L4.18848 115.435L4.18848 114.441ZM2.64697 115.537C2.48942 115.537 2.35514 115.488 2.24414 115.392C2.12956 115.291 2.07226 115.146 2.07226 114.957C2.07226 114.763 2.12777 114.616 2.23877 114.516C2.34977 114.416 2.48584 114.366 2.64697 114.366C2.8081 114.366 2.94238 114.416 3.0498 114.516C3.15723 114.616 3.21094 114.763 3.21094 114.957C3.21094 115.15 3.15723 115.295 3.0498 115.392C2.94238 115.488 2.8081 115.537 2.64697 115.537ZM10 109.247C9.88542 109.304 9.68131 109.351 9.38769 109.387C9.86751 109.849 10.1074 110.4 10.1074 111.041C10.1074 111.614 9.94629 112.085 9.62402 112.454C9.29818 112.819 8.88639 113.001 8.38867 113.001C7.78353 113.001 7.31445 112.772 6.98144 112.314C6.64486 111.852 6.47656 111.204 6.47656 110.37L6.47656 109.403L6.02002 109.403C5.67269 109.403 5.39697 109.507 5.19287 109.714C4.98519 109.922 4.88135 110.228 4.88135 110.633C4.88135 110.987 4.97087 111.285 5.1499 111.524C5.32894 111.764 5.54557 111.884 5.7998 111.884L5.7998 112.883C5.50976 112.883 5.23047 112.781 4.96191 112.577C4.68978 112.369 4.47493 112.09 4.31738 111.739C4.15983 111.385 4.08105 110.996 4.08105 110.574C4.08105 109.904 4.24935 109.38 4.58594 109C4.91894 108.62 5.37907 108.424 5.96631 108.409L8.64111 108.409C9.17464 108.409 9.59896 108.341 9.91406 108.205L10 108.205L10 109.247ZM9.24267 110.896C9.24267 110.584 9.16211 110.289 9.00098 110.01C8.83984 109.73 8.63037 109.528 8.37256 109.403L7.18017 109.403L7.18017 110.182C7.18017 111.399 7.53646 112.008 8.24902 112.008C8.56055 112.008 8.80404 111.904 8.97949 111.696C9.15495 111.489 9.24267 111.222 9.24267 110.896ZM9.29639 104.521C9.29639 104.166 9.18896 103.856 8.97412 103.591C8.75928 103.326 8.49072 103.18 8.16846 103.151L8.16846 102.211C8.50146 102.229 8.81836 102.343 9.11914 102.555C9.41992 102.766 9.65983 103.049 9.83887 103.403C10.0179 103.754 10.1074 104.127 10.1074 104.521C10.1074 105.312 9.84424 105.942 9.31787 106.411C8.78792 106.877 8.06461 107.109 7.14795 107.109L6.98144 107.109C6.41569 107.109 5.9126 107.006 5.47217 106.798C5.03174 106.59 4.68978 106.293 4.44629 105.906C4.2028 105.516 4.08105 105.056 4.08105 104.526C4.08105 103.874 4.2762 103.333 4.6665 102.904C5.0568 102.471 5.56348 102.24 6.18652 102.211L6.18652 103.151C5.81055 103.18 5.5026 103.323 5.26269 103.581C5.0192 103.835 4.89746 104.15 4.89746 104.526C4.89746 105.031 5.08008 105.423 5.44531 105.702C5.80697 105.978 6.33154 106.116 7.01904 106.116L7.20703 106.116C7.87663 106.116 8.39225 105.978 8.75391 105.702C9.11556 105.426 9.29639 105.033 9.29639 104.521ZM10.1074 98.6821C10.1074 99.4699 9.84961 100.111 9.33398 100.605C8.81478 101.099 8.12191 101.346 7.25537 101.346L7.07275 101.346C6.49626 101.346 5.98242 101.237 5.53125 101.019C5.0765 100.797 4.722 100.489 4.46777 100.095C4.20996 99.6973 4.08105 99.2676 4.08105 98.8057C4.08105 98.0501 4.32991 97.4629 4.82764 97.0439C5.32536 96.625 6.03792 96.4155 6.96533 96.4155L7.3789 96.4155L7.3789 100.353C7.95182 100.338 8.41553 100.172 8.77002 99.853C9.12093 99.5308 9.29639 99.1226 9.29639 98.6284C9.29639 98.2775 9.22477 97.9803 9.08154 97.7368C8.93831 97.4933 8.74853 97.2803 8.51221 97.0977L8.98486 96.4907C9.73323 96.9777 10.1074 97.7082 10.1074 98.6821ZM4.89746 98.8057C4.89746 99.2067 5.04427 99.5433 5.33789 99.8154C5.62793 100.088 6.03613 100.256 6.5625 100.32L6.5625 97.4092L6.4873 97.4092C5.98242 97.4378 5.59212 97.5739 5.3164 97.8174C5.03711 98.0609 4.89746 98.3903 4.89746 98.8057ZM4.18848 94.3208L4.91894 94.2886C4.36035 93.8446 4.08105 93.2645 4.08105 92.5483C4.08105 91.3201 4.77392 90.7007 6.15967 90.6899L10 90.6899L10 91.6836L6.1543 91.6836C5.73535 91.6872 5.42562 91.7839 5.2251 91.9736C5.02458 92.1598 4.92431 92.4517 4.92431 92.8491C4.92431 93.1714 5.01025 93.4543 5.18213 93.6978C5.354 93.9412 5.57959 94.131 5.85889 94.2671L10 94.2671L10 95.2607L4.18848 95.2607L4.18848 94.3208ZM9.29638 86.8604C9.29638 86.5059 9.18896 86.1961 8.97412 85.9312C8.75928 85.6662 8.49072 85.5194 8.16846 85.4907L8.16846 84.5508C8.50146 84.5687 8.81836 84.6833 9.11914 84.8945C9.41992 85.1058 9.65983 85.3887 9.83887 85.7432C10.0179 86.0941 10.1074 86.4665 10.1074 86.8604C10.1074 87.6517 9.84424 88.2819 9.31787 88.751C8.78792 89.2165 8.06461 89.4492 7.14795 89.4492L6.98144 89.4492C6.41569 89.4492 5.9126 89.3454 5.47217 89.1377C5.03174 88.93 4.68978 88.6328 4.44629 88.2461C4.2028 87.8558 4.08105 87.3957 4.08105 86.8657C4.08105 86.214 4.2762 85.6733 4.6665 85.2437C5.0568 84.8104 5.56347 84.5794 6.18652 84.5508L6.18652 85.4907C5.81054 85.5194 5.5026 85.6626 5.26269 85.9204C5.0192 86.1746 4.89746 86.4897 4.89746 86.8657C4.89746 87.3706 5.08008 87.7627 5.44531 88.042C5.80696 88.3177 6.33154 88.4556 7.01904 88.4556L7.20703 88.4556C7.87663 88.4556 8.39225 88.3177 8.7539 88.042C9.11556 87.7663 9.29638 87.3724 9.29638 86.8604ZM8.54443 81.5322L4.18847 80.1787L4.18847 79.1152L10.897 81.4517C11.8638 81.8133 12.3472 82.388 12.3472 83.1758L12.3311 83.3638L12.2612 83.7344L11.4556 83.7344L11.477 83.4658C11.477 83.1292 11.409 82.8678 11.2729 82.6816C11.1369 82.4919 10.888 82.3361 10.5264 82.2144L9.93554 81.9941L4.18847 84.0674L4.18847 82.9824L8.54443 81.5322ZM2.17969 74.0073L8.56054 71.4507L2.17968 68.894L2.17968 67.5566L10 67.5566L10 68.5879L6.95459 68.5879L3.66748 68.4912L10 71.0586L10 71.8481L3.68359 74.4102L6.95459 74.3081L10 74.3081L10 75.3394L2.17969 75.3394L2.17969 74.0073ZM10 62.3037C9.88541 62.361 9.68131 62.4076 9.38769 62.4434C9.86751 62.9053 10.1074 63.4567 10.1074 64.0977C10.1074 64.6706 9.94629 65.1414 9.62402 65.5103C9.29817 65.8755 8.88639 66.0581 8.38867 66.0581C7.78353 66.0581 7.31445 65.8289 6.98144 65.3706C6.64485 64.9087 6.47656 64.2606 6.47656 63.4263L6.47656 62.4595L6.02002 62.4595C5.67269 62.4595 5.39697 62.5633 5.19287 62.771C4.98519 62.9787 4.88134 63.2848 4.88134 63.6895C4.88134 64.0439 4.97086 64.3411 5.1499 64.5811C5.32894 64.821 5.54557 64.9409 5.7998 64.9409L5.7998 65.9399C5.50976 65.9399 5.23047 65.8379 4.96191 65.6338C4.68978 65.4261 4.47493 65.1468 4.31738 64.7959C4.15983 64.4414 4.08105 64.0529 4.08105 63.6304C4.08105 62.9608 4.24935 62.4362 4.58593 62.0566C4.91894 61.6771 5.37907 61.4801 5.96631 61.4658L8.64111 61.4658C9.17464 61.4658 9.59896 61.3978 9.91406 61.2617L10 61.2617L10 62.3037ZM9.24267 63.9526C9.24267 63.6411 9.16211 63.3457 9.00097 63.0664C8.83984 62.7871 8.63037 62.5848 8.37256 62.4595L7.18017 62.4595L7.18017 63.2383C7.18017 64.4557 7.53646 65.0645 8.24902 65.0645C8.56054 65.0645 8.80403 64.9606 8.97949 64.7529C9.15495 64.5452 9.24267 64.2785 9.24267 63.9526ZM2.78125 58.5601L4.18847 58.5601L4.18847 57.4751L4.95654 57.4751L4.95654 58.5601L8.56054 58.5601C8.79329 58.5601 8.96875 58.5117 9.08691 58.415C9.20149 58.3184 9.25879 58.1536 9.25879 57.9209C9.25879 57.8063 9.2373 57.6488 9.19433 57.4482L10 57.4482C10.0716 57.7096 10.1074 57.9639 10.1074 58.2109C10.1074 58.6549 9.97314 58.9897 9.70459 59.2153C9.43603 59.4409 9.05468 59.5537 8.56054 59.5537L4.95654 59.5537L4.95654 60.6118L4.18847 60.6118L4.18847 59.5537L2.78125 59.5537L2.78125 58.5601ZM5.08007 53.5005C5.05501 53.6509 5.04248 53.8138 5.04248 53.9893C5.04248 54.641 5.31998 55.0832 5.875 55.3159L10 55.3159L10 56.3096L4.18847 56.3096L4.18847 55.3428L4.85986 55.3267C4.34065 55.0008 4.08105 54.5389 4.08105 53.9409C4.08105 53.7476 4.10612 53.6007 4.15625 53.5005L5.08007 53.5005ZM10 51.5024L10 52.4961L4.18847 52.4961L4.18847 51.5024L10 51.5024ZM2.64697 52.5767C2.48584 52.5767 2.34977 52.5283 2.23877 52.4316C2.12776 52.3314 2.07226 52.1846 2.07226 51.9912C2.07226 51.7979 2.12776 51.651 2.23877 51.5508C2.34977 51.4505 2.48584 51.4004 2.64697 51.4004C2.8081 51.4004 2.94238 51.4505 3.0498 51.5508C3.15722 51.651 3.21093 51.7979 3.21093 51.9912C3.21093 52.1846 3.15722 52.3314 3.0498 52.4316C2.94238 52.5283 2.8081 52.5767 2.64697 52.5767ZM9.29638 47.5762C9.29638 47.2217 9.18896 46.9119 8.97412 46.647C8.75927 46.382 8.49072 46.2352 8.16845 46.2065L8.16845 45.2666C8.50146 45.2845 8.81836 45.3991 9.11914 45.6104C9.41992 45.8216 9.65983 46.1045 9.83886 46.459C10.0179 46.8099 10.1074 47.1823 10.1074 47.5762C10.1074 48.3675 9.84423 48.9977 9.31787 49.4668C8.78792 49.9323 8.06461 50.165 7.14795 50.165L6.98144 50.165C6.41569 50.165 5.91259 50.0612 5.47216 49.8535C5.03173 49.6458 4.68978 49.3486 4.44629 48.9619C4.2028 48.5716 4.08105 48.1115 4.08105 47.5815C4.08105 46.9299 4.2762 46.3892 4.6665 45.9595C5.0568 45.5262 5.56347 45.2952 6.18652 45.2666L6.18652 46.2065C5.81054 46.2352 5.5026 46.3784 5.26269 46.6362C5.0192 46.8905 4.89746 47.2056 4.89746 47.5815C4.89746 48.0864 5.08007 48.4785 5.44531 48.7578C5.80696 49.0335 6.33154 49.1714 7.01904 49.1714L7.20703 49.1714C7.87662 49.1714 8.39225 49.0335 8.7539 48.7578C9.11556 48.4821 9.29638 48.0882 9.29638 47.5762ZM10.1074 41.7378C10.1074 42.5256 9.84961 43.1665 9.33398 43.6606C8.81477 44.1548 8.1219 44.4019 7.25537 44.4019L7.07275 44.4019C6.49625 44.4019 5.98242 44.2926 5.53125 44.0742C5.07649 43.8522 4.722 43.5443 4.46777 43.1504C4.20996 42.7529 4.08105 42.3232 4.08105 41.8613C4.08105 41.1058 4.32991 40.5186 4.82763 40.0996C5.32535 39.6807 6.03792 39.4712 6.96533 39.4712L7.3789 39.4712L7.3789 43.4082C7.95182 43.3939 8.41552 43.2274 8.77002 42.9087C9.12093 42.5864 9.29638 42.1782 9.29638 41.6841C9.29638 41.3332 9.22477 41.036 9.08154 40.7925C8.93831 40.549 8.74853 40.3359 8.5122 40.1533L8.98486 39.5464C9.73323 40.0334 10.1074 40.7638 10.1074 41.7378ZM4.89746 41.8613C4.89746 42.2624 5.04427 42.599 5.33789 42.8711C5.62793 43.1432 6.03613 43.3115 6.5625 43.376L6.5625 40.4648L6.4873 40.4648C5.98242 40.4935 5.59212 40.6296 5.3164 40.873C5.03711 41.1165 4.89746 41.446 4.89746 41.8613ZM8.45849 34.9326C8.18994 34.9326 7.98225 35.0347 7.83545 35.2388C7.68505 35.4393 7.55615 35.792 7.44873 36.2969C7.3413 36.7982 7.2124 37.1974 7.06201 37.4946C6.91162 37.7882 6.73258 38.0067 6.5249 38.1499C6.31722 38.2896 6.07015 38.3594 5.78369 38.3594C5.30745 38.3594 4.90462 38.1589 4.57519 37.7578C4.24576 37.3532 4.08105 36.8376 4.08105 36.2109C4.08105 35.5521 4.25114 35.0186 4.5913 34.6104C4.93147 34.1986 5.36653 33.9927 5.89648 33.9927L5.89648 34.9917C5.62434 34.9917 5.38981 35.1081 5.19287 35.3408C4.99593 35.57 4.89746 35.86 4.89746 36.2109C4.89746 36.5726 4.97623 36.8555 5.13378 37.0596C5.29134 37.2637 5.49723 37.3657 5.75146 37.3657C5.99137 37.3657 6.1722 37.2708 6.29394 37.0811C6.41569 36.8913 6.53206 36.5493 6.64306 36.0552C6.75406 35.5575 6.88655 35.1546 7.04052 34.8467C7.19449 34.5387 7.38069 34.3114 7.59912 34.1646C7.81396 34.0142 8.07714 33.939 8.38867 33.939C8.90787 33.939 9.32503 34.1466 9.64013 34.562C9.95166 34.9774 10.1074 35.5163 10.1074 36.1787C10.1074 36.6442 10.0251 37.056 9.86035 37.4141C9.69563 37.7721 9.46647 38.0532 9.17285 38.2573C8.87565 38.4578 8.55517 38.5581 8.21142 38.5581L8.21142 37.5645C8.54443 37.5465 8.8094 37.4141 9.00634 37.167C9.1997 36.9163 9.29638 36.5869 9.29638 36.1787C9.29638 35.8027 9.22119 35.502 9.0708 35.2764C8.91683 35.0472 8.71272 34.9326 8.45849 34.9326Z" fill="black"/>
<path d="M6.54639 188.565L6.54639 191.847L10 191.847L10 192.878L2.17969 192.878L2.17969 188.033L3.02832 188.033L3.02832 191.847L5.70312 191.847L5.70312 188.565L6.54639 188.565ZM10.1074 184.66C10.1074 185.448 9.84961 186.089 9.33398 186.583C8.81478 187.077 8.12191 187.324 7.25537 187.324L7.07275 187.324C6.49626 187.324 5.98242 187.215 5.53125 186.997C5.0765 186.775 4.722 186.467 4.46777 186.073C4.20996 185.675 4.08105 185.246 4.08105 184.784C4.08105 184.028 4.32991 183.441 4.82764 183.022C5.32536 182.603 6.03792 182.394 6.96533 182.394L7.37891 182.394L7.37891 186.331C7.95182 186.316 8.41553 186.15 8.77002 185.831C9.12093 185.509 9.29639 185.101 9.29639 184.606C9.29639 184.256 9.22477 183.958 9.08154 183.715C8.93831 183.471 8.74853 183.258 8.51221 183.076L8.98486 182.469C9.73324 182.956 10.1074 183.686 10.1074 184.66ZM4.89746 184.784C4.89746 185.185 5.04427 185.521 5.33789 185.793C5.62793 186.066 6.03613 186.234 6.5625 186.298L6.5625 183.387L6.4873 183.387C5.98242 183.416 5.59212 183.552 5.31641 183.795C5.03711 184.039 4.89746 184.368 4.89746 184.784ZM10 177.651C9.88542 177.708 9.68131 177.755 9.38769 177.791C9.86751 178.252 10.1074 178.804 10.1074 179.445C10.1074 180.018 9.94629 180.489 9.62402 180.857C9.29818 181.223 8.88639 181.405 8.38867 181.405C7.78353 181.405 7.31445 181.176 6.98144 180.718C6.64486 180.256 6.47656 179.608 6.47656 178.773L6.47656 177.807L6.02002 177.807C5.67269 177.807 5.39697 177.91 5.19287 178.118C4.98519 178.326 4.88135 178.632 4.88135 179.037C4.88135 179.391 4.97087 179.688 5.1499 179.928C5.32894 180.168 5.54557 180.288 5.7998 180.288L5.7998 181.287C5.50977 181.287 5.23047 181.185 4.96191 180.981C4.68978 180.773 4.47493 180.494 4.31738 180.143C4.15983 179.789 4.08105 179.4 4.08105 178.978C4.08105 178.308 4.24935 177.783 4.58594 177.404C4.91894 177.024 5.37907 176.827 5.96631 176.813L8.64111 176.813C9.17464 176.813 9.59896 176.745 9.91406 176.609L10 176.609L10 177.651ZM9.24268 179.3C9.24268 178.988 9.16211 178.693 9.00098 178.414C8.83984 178.134 8.63037 177.932 8.37256 177.807L7.18018 177.807L7.18018 178.585C7.18018 179.803 7.53646 180.412 8.24902 180.412C8.56055 180.412 8.80404 180.308 8.97949 180.1C9.15495 179.892 9.24268 179.626 9.24268 179.3ZM2.78125 173.907L4.18848 173.907L4.18848 172.822L4.95654 172.822L4.95654 173.907L8.56055 173.907C8.79329 173.907 8.96875 173.859 9.08691 173.762C9.2015 173.666 9.25879 173.501 9.25879 173.268C9.25879 173.153 9.2373 172.996 9.19434 172.795L10 172.795C10.0716 173.057 10.1074 173.311 10.1074 173.558C10.1074 174.002 9.97314 174.337 9.70459 174.562C9.43603 174.788 9.05469 174.901 8.56055 174.901L4.95654 174.901L4.95654 175.959L4.18848 175.959L4.18848 174.901L2.78125 174.901L2.78125 173.907ZM9.42529 168.069C9.88004 168.456 10.1074 169.023 10.1074 169.771C10.1074 170.391 9.92838 170.864 9.57031 171.189C9.20866 171.512 8.67513 171.675 7.96973 171.678L4.18848 171.678L4.18848 170.685L7.94287 170.685C8.82373 170.685 9.26416 170.326 9.26416 169.61C9.26416 168.851 8.98128 168.346 8.41553 168.096L4.18848 168.096L4.18848 167.102L10 167.102L10 168.047L9.42529 168.069ZM5.08008 162.778C5.05501 162.929 5.04248 163.092 5.04248 163.267C5.04248 163.919 5.31999 164.361 5.875 164.594L10 164.594L10 165.587L4.18848 165.587L4.18848 164.621L4.85986 164.604C4.34066 164.279 4.08105 163.817 4.08105 163.219C4.08105 163.025 4.10612 162.879 4.15625 162.778L5.08008 162.778ZM10.1074 159.556C10.1074 160.343 9.84961 160.984 9.33398 161.479C8.81478 161.973 8.12191 162.22 7.25537 162.22L7.07275 162.22C6.49626 162.22 5.98242 162.111 5.53125 161.892C5.0765 161.67 4.722 161.362 4.46777 160.968C4.20996 160.571 4.08105 160.141 4.08105 159.679C4.08105 158.924 4.32991 158.336 4.82764 157.917C5.32536 157.499 6.03792 157.289 6.96533 157.289L7.3789 157.289L7.3789 161.226C7.95182 161.212 8.41553 161.045 8.77002 160.727C9.12093 160.404 9.29639 159.996 9.29639 159.502C9.29639 159.151 9.22477 158.854 9.08154 158.61C8.93831 158.367 8.74853 158.154 8.51221 157.971L8.98486 157.364C9.73323 157.851 10.1074 158.582 10.1074 159.556ZM4.89746 159.679C4.89746 160.08 5.04427 160.417 5.33789 160.689C5.62793 160.961 6.03613 161.129 6.5625 161.194L6.5625 158.283L6.4873 158.283C5.98242 158.311 5.59212 158.447 5.3164 158.691C5.03711 158.934 4.89746 159.264 4.89746 159.679ZM8.45849 152.75C8.18994 152.75 7.98226 152.853 7.83545 153.057C7.68506 153.257 7.55615 153.61 7.44873 154.115C7.34131 154.616 7.2124 155.015 7.06201 155.312C6.91162 155.606 6.73258 155.825 6.5249 155.968C6.31722 156.107 6.07015 156.177 5.78369 156.177C5.30745 156.177 4.90462 155.977 4.57519 155.576C4.24577 155.171 4.08105 154.655 4.08105 154.029C4.08105 153.37 4.25114 152.836 4.59131 152.428C4.93148 152.016 5.36653 151.811 5.89648 151.811L5.89648 152.81C5.62435 152.81 5.38981 152.926 5.19287 153.159C4.99593 153.388 4.89746 153.678 4.89746 154.029C4.89746 154.39 4.97624 154.673 5.13379 154.877C5.29134 155.082 5.49723 155.184 5.75146 155.184C5.99137 155.184 6.1722 155.089 6.29394 154.899C6.41569 154.709 6.53206 154.367 6.64306 153.873C6.75407 153.375 6.88655 152.972 7.04053 152.665C7.1945 152.357 7.38069 152.129 7.59912 151.982C7.81396 151.832 8.07715 151.757 8.38867 151.757C8.90788 151.757 9.32503 151.965 9.64013 152.38C9.95166 152.795 10.1074 153.334 10.1074 153.997C10.1074 154.462 10.0251 154.874 9.86035 155.232C9.69564 155.59 9.46647 155.871 9.17285 156.075C8.87565 156.276 8.55517 156.376 8.21142 156.376L8.21142 155.382C8.54443 155.364 8.80941 155.232 9.00635 154.985C9.19971 154.734 9.29638 154.405 9.29638 153.997C9.29638 153.621 9.22119 153.32 9.0708 153.094C8.91683 152.865 8.71273 152.75 8.45849 152.75Z" fill="black"/>
<path d="M267.369 58.3853H263.979V61.1567H267.917V62H262.948V54.1797H267.863V55.0283H263.979V57.542H267.369V58.3853ZM269.979 56.1885L270.006 56.833C270.432 56.3317 271.007 56.0811 271.73 56.0811C272.543 56.0811 273.096 56.3926 273.39 57.0156C273.583 56.7363 273.834 56.5107 274.142 56.3389C274.453 56.167 274.82 56.0811 275.243 56.0811C276.517 56.0811 277.166 56.756 277.187 58.106V62H276.193V58.165C276.193 57.7497 276.098 57.4399 275.909 57.2358C275.719 57.0282 275.4 56.9243 274.953 56.9243C274.584 56.9243 274.278 57.0353 274.034 57.2573C273.791 57.4757 273.649 57.7712 273.61 58.1436V62H272.611V58.1919C272.611 57.3468 272.197 56.9243 271.37 56.9243C270.718 56.9243 270.273 57.2018 270.033 57.7568V62H269.039V56.1885H269.979ZM283.611 59.1587C283.611 60.0467 283.407 60.7611 282.999 61.3018C282.59 61.8389 282.042 62.1074 281.355 62.1074C280.621 62.1074 280.053 61.8478 279.652 61.3286L279.604 62H278.691V53.75H279.685V56.8276C280.086 56.3299 280.639 56.0811 281.344 56.0811C282.05 56.0811 282.603 56.3478 283.004 56.8813C283.409 57.4149 283.611 58.1453 283.611 59.0728V59.1587ZM282.617 59.0459C282.617 58.3691 282.486 57.8464 282.225 57.4775C281.964 57.1087 281.588 56.9243 281.097 56.9243C280.442 56.9243 279.971 57.2287 279.685 57.8374V60.3511C279.989 60.9598 280.463 61.2642 281.108 61.2642C281.584 61.2642 281.955 61.0798 282.22 60.7109C282.485 60.3421 282.617 59.7871 282.617 59.0459ZM287.279 62.1074C286.492 62.1074 285.851 61.8496 285.356 61.334C284.862 60.8148 284.615 60.1219 284.615 59.2554V59.0728C284.615 58.4963 284.724 57.9824 284.943 57.5312C285.165 57.0765 285.473 56.722 285.867 56.4678C286.264 56.21 286.694 56.0811 287.156 56.0811C287.911 56.0811 288.499 56.3299 288.917 56.8276C289.336 57.3254 289.546 58.0379 289.546 58.9653V59.3789L285.609 59.3789C285.623 59.9518 285.79 60.4155 286.108 60.77C286.431 61.1209 286.839 61.2964 287.333 61.2964C287.684 61.2964 287.981 61.2248 288.225 61.0815C288.468 60.9383 288.681 60.7485 288.864 60.5122L289.471 60.9849C288.984 61.7332 288.253 62.1074 287.279 62.1074ZM287.156 56.8975C286.755 56.8975 286.418 57.0443 286.146 57.3379C285.874 57.6279 285.706 58.0361 285.641 58.5625L288.552 58.5625V58.4873C288.524 57.9824 288.388 57.5921 288.144 57.3164C287.901 57.0371 287.571 56.8975 287.156 56.8975ZM290.459 59.0459C290.459 58.1543 290.67 57.4382 291.093 56.8975C291.515 56.3532 292.069 56.0811 292.752 56.0811C293.433 56.0811 293.972 56.3138 294.369 56.7793V53.75H295.363V62H294.45L294.401 61.377C294.004 61.8639 293.451 62.1074 292.742 62.1074C292.069 62.1074 291.519 61.8317 291.093 61.2803C290.67 60.7288 290.459 60.0091 290.459 59.1211V59.0459ZM291.453 59.1587C291.453 59.8175 291.589 60.3332 291.861 60.7056C292.133 61.078 292.509 61.2642 292.989 61.2642C293.619 61.2642 294.079 60.9813 294.369 60.4155V57.7461C294.072 57.1982 293.615 56.9243 293 56.9243C292.513 56.9243 292.133 57.1123 291.861 57.4883C291.589 57.8643 291.453 58.4211 291.453 59.1587ZM296.668 59.0459C296.668 58.1543 296.879 57.4382 297.302 56.8975C297.724 56.3532 298.278 56.0811 298.961 56.0811C299.642 56.0811 300.181 56.3138 300.578 56.7793V53.75H301.572V62H300.659L300.61 61.377C300.213 61.8639 299.66 62.1074 298.951 62.1074C298.278 62.1074 297.728 61.8317 297.302 61.2803C296.879 60.7288 296.668 60.0091 296.668 59.1211V59.0459ZM297.662 59.1587C297.662 59.8175 297.798 60.3332 298.07 60.7056C298.342 61.078 298.718 61.2642 299.198 61.2642C299.828 61.2642 300.288 60.9813 300.578 60.4155V57.7461C300.281 57.1982 299.824 56.9243 299.208 56.9243C298.722 56.9243 298.342 57.1123 298.07 57.4883C297.798 57.8643 297.662 58.4211 297.662 59.1587ZM304.198 62H303.205V56.1885H304.198V62ZM303.124 54.647C303.124 54.4858 303.172 54.3498 303.269 54.2388C303.369 54.1278 303.516 54.0723 303.709 54.0723C303.903 54.0723 304.05 54.1278 304.15 54.2388C304.25 54.3498 304.3 54.4858 304.3 54.647C304.3 54.8081 304.25 54.9424 304.15 55.0498C304.05 55.1572 303.903 55.2109 303.709 55.2109C303.516 55.2109 303.369 55.1572 303.269 55.0498C303.172 54.9424 303.124 54.8081 303.124 54.647ZM306.733 56.1885L306.766 56.9189C307.21 56.3604 307.79 56.0811 308.506 56.0811C309.734 56.0811 310.354 56.7739 310.364 58.1597V62H309.371V58.1543C309.367 57.7354 309.27 57.4256 309.081 57.2251C308.894 57.0246 308.603 56.9243 308.205 56.9243C307.883 56.9243 307.6 57.0103 307.356 57.1821C307.113 57.354 306.923 57.5796 306.787 57.8589V62H305.793V56.1885H306.733ZM311.626 59.0459C311.626 58.14 311.836 57.4202 312.255 56.8867C312.674 56.3496 313.229 56.0811 313.92 56.0811C314.629 56.0811 315.182 56.3317 315.58 56.833L315.628 56.1885H316.536V61.8604C316.536 62.6123 316.312 63.2049 315.864 63.6382C315.42 64.0715 314.822 64.2881 314.07 64.2881C313.651 64.2881 313.241 64.1986 312.84 64.0195C312.439 63.8405 312.133 63.5952 311.922 63.2837L312.438 62.6875C312.864 63.2139 313.385 63.4771 314 63.4771C314.484 63.4771 314.86 63.341 315.128 63.0688C315.401 62.7967 315.537 62.4136 315.537 61.9194V61.4199C315.139 61.8783 314.597 62.1074 313.909 62.1074C313.229 62.1074 312.677 61.8335 312.255 61.2856C311.836 60.7378 311.626 59.9912 311.626 59.0459ZM312.625 59.1587C312.625 59.814 312.76 60.3296 313.028 60.7056C313.297 61.078 313.673 61.2642 314.156 61.2642C314.783 61.2642 315.243 60.9795 315.537 60.4102V57.7568C315.232 57.2018 314.776 56.9243 314.167 56.9243C313.684 56.9243 313.306 57.1123 313.034 57.4883C312.762 57.8643 312.625 58.4211 312.625 59.1587ZM321.423 60.4585C321.423 60.1899 321.321 59.9823 321.117 59.8354C320.917 59.6851 320.564 59.5562 320.059 59.4487C319.558 59.3413 319.159 59.2124 318.861 59.062C318.568 58.9116 318.349 58.7326 318.206 58.5249C318.066 58.3172 317.997 58.0701 317.997 57.7837C317.997 57.3075 318.197 56.9046 318.598 56.5752C319.003 56.2458 319.518 56.0811 320.145 56.0811C320.804 56.0811 321.337 56.2511 321.746 56.5913C322.157 56.9315 322.363 57.3665 322.363 57.8965H321.364C321.364 57.6243 321.248 57.3898 321.015 57.1929C320.786 56.9959 320.496 56.8975 320.145 56.8975C319.783 56.8975 319.5 56.9762 319.296 57.1338C319.092 57.2913 318.99 57.4972 318.99 57.7515C318.99 57.9914 319.085 58.1722 319.275 58.2939C319.465 58.4157 319.807 58.5321 320.301 58.6431C320.799 58.7541 321.201 58.8866 321.509 59.0405C321.817 59.1945 322.045 59.3807 322.191 59.5991C322.342 59.814 322.417 60.0771 322.417 60.3887C322.417 60.9079 322.209 61.325 321.794 61.6401C321.379 61.9517 320.84 62.1074 320.177 62.1074C319.712 62.1074 319.3 62.0251 318.942 61.8604C318.584 61.6956 318.303 61.4665 318.099 61.1729C317.898 60.8757 317.798 60.5552 317.798 60.2114H318.792C318.809 60.5444 318.942 60.8094 319.189 61.0063C319.44 61.1997 319.769 61.2964 320.177 61.2964C320.553 61.2964 320.854 61.2212 321.08 61.0708C321.309 60.9168 321.423 60.7127 321.423 60.4585Z" fill="black"/>
<path d="M302.328 177.385H298.939V180.157H302.876V181H297.908V173.18H302.822V174.028H298.939V176.542H302.328V177.385ZM304.938 175.188L304.965 175.833C305.391 175.332 305.966 175.081 306.689 175.081C307.502 175.081 308.056 175.393 308.349 176.016C308.542 175.736 308.793 175.511 309.101 175.339C309.413 175.167 309.78 175.081 310.202 175.081C311.477 175.081 312.125 175.756 312.146 177.106V181H311.153V177.165C311.153 176.75 311.058 176.44 310.868 176.236C310.678 176.028 310.36 175.924 309.912 175.924C309.543 175.924 309.237 176.035 308.994 176.257C308.75 176.476 308.609 176.771 308.569 177.144V181H307.57V177.192C307.57 176.347 307.157 175.924 306.33 175.924C305.678 175.924 305.232 176.202 304.992 176.757V181H303.999V175.188H304.938ZM318.57 178.159C318.57 179.047 318.366 179.761 317.958 180.302C317.55 180.839 317.002 181.107 316.314 181.107C315.58 181.107 315.013 180.848 314.612 180.329L314.563 181H313.65V172.75H314.644V175.828C315.045 175.33 315.598 175.081 316.304 175.081C317.009 175.081 317.562 175.348 317.963 175.881C318.368 176.415 318.57 177.145 318.57 178.073V178.159ZM317.577 178.046C317.577 177.369 317.446 176.846 317.185 176.478C316.923 176.109 316.547 175.924 316.057 175.924C315.401 175.924 314.931 176.229 314.644 176.837V179.351C314.948 179.96 315.423 180.264 316.067 180.264C316.544 180.264 316.914 180.08 317.179 179.711C317.444 179.342 317.577 178.787 317.577 178.046ZM322.239 181.107C321.451 181.107 320.81 180.85 320.316 180.334C319.822 179.815 319.575 179.122 319.575 178.255V178.073C319.575 177.496 319.684 176.982 319.902 176.531C320.124 176.076 320.432 175.722 320.826 175.468C321.224 175.21 321.653 175.081 322.115 175.081C322.871 175.081 323.458 175.33 323.877 175.828C324.296 176.325 324.505 177.038 324.505 177.965V178.379H320.568C320.583 178.952 320.749 179.416 321.068 179.77C321.39 180.121 321.798 180.296 322.292 180.296C322.643 180.296 322.941 180.225 323.184 180.082C323.428 179.938 323.641 179.749 323.823 179.512L324.43 179.985C323.943 180.733 323.213 181.107 322.239 181.107ZM322.115 175.897C321.714 175.897 321.378 176.044 321.105 176.338C320.833 176.628 320.665 177.036 320.601 177.562H323.512V177.487C323.483 176.982 323.347 176.592 323.104 176.316C322.86 176.037 322.531 175.897 322.115 175.897ZM325.418 178.046C325.418 177.154 325.63 176.438 326.052 175.897C326.475 175.353 327.028 175.081 327.712 175.081C328.392 175.081 328.931 175.314 329.329 175.779V172.75H330.322V181H329.409L329.361 180.377C328.963 180.864 328.41 181.107 327.701 181.107C327.028 181.107 326.478 180.832 326.052 180.28C325.63 179.729 325.418 179.009 325.418 178.121V178.046ZM326.412 178.159C326.412 178.818 326.548 179.333 326.82 179.706C327.092 180.078 327.468 180.264 327.948 180.264C328.578 180.264 329.039 179.981 329.329 179.416V176.746C329.031 176.198 328.575 175.924 327.959 175.924C327.472 175.924 327.092 176.112 326.82 176.488C326.548 176.864 326.412 177.421 326.412 178.159ZM331.627 178.046C331.627 177.154 331.839 176.438 332.261 175.897C332.684 175.353 333.237 175.081 333.921 175.081C334.601 175.081 335.14 175.314 335.538 175.779V172.75H336.531V181H335.618L335.57 180.377C335.172 180.864 334.619 181.107 333.91 181.107C333.237 181.107 332.687 180.832 332.261 180.28C331.839 179.729 331.627 179.009 331.627 178.121V178.046ZM332.621 178.159C332.621 178.818 332.757 179.333 333.029 179.706C333.301 180.078 333.677 180.264 334.157 180.264C334.787 180.264 335.248 179.981 335.538 179.416V176.746C335.24 176.198 334.784 175.924 334.168 175.924C333.681 175.924 333.301 176.112 333.029 176.488C332.757 176.864 332.621 177.421 332.621 178.159ZM339.158 181H338.164V175.188H339.158V181ZM338.083 173.647C338.083 173.486 338.132 173.35 338.229 173.239C338.329 173.128 338.476 173.072 338.669 173.072C338.862 173.072 339.009 173.128 339.109 173.239C339.21 173.35 339.26 173.486 339.26 173.647C339.26 173.808 339.21 173.942 339.109 174.05C339.009 174.157 338.862 174.211 338.669 174.211C338.476 174.211 338.329 174.157 338.229 174.05C338.132 173.942 338.083 173.808 338.083 173.647ZM341.693 175.188L341.725 175.919C342.169 175.36 342.749 175.081 343.465 175.081C344.694 175.081 345.313 175.774 345.324 177.16V181H344.33V177.154C344.326 176.735 344.23 176.426 344.04 176.225C343.854 176.025 343.562 175.924 343.165 175.924C342.842 175.924 342.559 176.01 342.316 176.182C342.072 176.354 341.883 176.58 341.747 176.859V181H340.753V175.188H341.693ZM346.586 178.046C346.586 177.14 346.795 176.42 347.214 175.887C347.633 175.35 348.188 175.081 348.879 175.081C349.588 175.081 350.142 175.332 350.539 175.833L350.587 175.188H351.495V180.86C351.495 181.612 351.271 182.205 350.824 182.638C350.38 183.071 349.782 183.288 349.03 183.288C348.611 183.288 348.201 183.199 347.8 183.02C347.399 182.84 347.093 182.595 346.881 182.284L347.397 181.688C347.823 182.214 348.344 182.477 348.96 182.477C349.443 182.477 349.819 182.341 350.088 182.069C350.36 181.797 350.496 181.414 350.496 180.919V180.42C350.099 180.878 349.556 181.107 348.869 181.107C348.188 181.107 347.637 180.833 347.214 180.286C346.795 179.738 346.586 178.991 346.586 178.046ZM347.585 178.159C347.585 178.814 347.719 179.33 347.988 179.706C348.256 180.078 348.632 180.264 349.116 180.264C349.742 180.264 350.202 179.979 350.496 179.41V176.757C350.192 176.202 349.735 175.924 349.126 175.924C348.643 175.924 348.265 176.112 347.993 176.488C347.721 176.864 347.585 177.421 347.585 178.159ZM298.944 193.157H302.65V194H297.908V186.18H298.944V193.157ZM303.408 191.041C303.408 190.471 303.519 189.959 303.741 189.504C303.966 189.05 304.278 188.699 304.675 188.452C305.076 188.205 305.533 188.081 306.045 188.081C306.836 188.081 307.475 188.355 307.962 188.903C308.453 189.451 308.698 190.179 308.698 191.089V191.159C308.698 191.724 308.589 192.233 308.371 192.684C308.156 193.132 307.846 193.481 307.441 193.731C307.04 193.982 306.578 194.107 306.056 194.107C305.268 194.107 304.629 193.833 304.138 193.286C303.651 192.738 303.408 192.013 303.408 191.11V191.041ZM304.407 191.159C304.407 191.803 304.555 192.321 304.853 192.711C305.153 193.101 305.554 193.296 306.056 193.296C306.561 193.296 306.962 193.099 307.259 192.706C307.556 192.308 307.705 191.753 307.705 191.041C307.705 190.403 307.552 189.888 307.248 189.494C306.947 189.096 306.546 188.897 306.045 188.897C305.554 188.897 305.159 189.093 304.858 189.483C304.557 189.873 304.407 190.432 304.407 191.159ZM309.681 191.041C309.681 190.471 309.792 189.959 310.014 189.504C310.24 189.05 310.551 188.699 310.949 188.452C311.35 188.205 311.806 188.081 312.318 188.081C313.11 188.081 313.749 188.355 314.236 188.903C314.726 189.451 314.972 190.179 314.972 191.089V191.159C314.972 191.724 314.862 192.233 314.644 192.684C314.429 193.132 314.119 193.481 313.715 193.731C313.314 193.982 312.852 194.107 312.329 194.107C311.541 194.107 310.902 193.833 310.412 193.286C309.925 192.738 309.681 192.013 309.681 191.11V191.041ZM310.68 191.159C310.68 191.803 310.829 192.321 311.126 192.711C311.427 193.101 311.828 193.296 312.329 193.296C312.834 193.296 313.235 193.099 313.532 192.706C313.829 192.308 313.978 191.753 313.978 191.041C313.978 190.403 313.826 189.888 313.521 189.494C313.221 189.096 312.82 188.897 312.318 188.897C311.828 188.897 311.432 189.093 311.131 189.483C310.831 189.873 310.68 190.432 310.68 191.159ZM317.84 191.309L317.217 191.959V194H316.223V185.75H317.217V190.74L317.749 190.101L319.559 188.188H320.767L318.506 190.616L321.03 194H319.865L317.84 191.309ZM325.381 193.425C324.994 193.88 324.427 194.107 323.678 194.107C323.059 194.107 322.586 193.928 322.26 193.57C321.938 193.209 321.775 192.675 321.771 191.97V188.188H322.765V191.943C322.765 192.824 323.123 193.264 323.839 193.264C324.598 193.264 325.103 192.981 325.354 192.416V188.188H326.348V194H325.402L325.381 193.425ZM332.771 191.159C332.771 192.043 332.569 192.756 332.165 193.296C331.76 193.837 331.212 194.107 330.521 194.107C329.816 194.107 329.261 193.884 328.856 193.436V196.234H327.862V188.188H328.77L328.818 188.833C329.223 188.332 329.785 188.081 330.505 188.081C331.203 188.081 331.755 188.344 332.159 188.871C332.567 189.397 332.771 190.129 332.771 191.067V191.159ZM331.778 191.046C331.778 190.391 331.638 189.873 331.359 189.494C331.08 189.114 330.696 188.924 330.209 188.924C329.608 188.924 329.157 189.191 328.856 189.725V192.501C329.153 193.031 329.608 193.296 330.22 193.296C330.696 193.296 331.074 193.108 331.354 192.732C331.636 192.353 331.778 191.791 331.778 191.046Z" fill="black"/>
<path d="M6.34228 255.806C7.09782 255.806 7.74951 255.926 8.29736 256.166C8.84163 256.405 9.26774 256.742 9.57568 257.175L10.6714 255.779L11.3213 256.482L10.0107 258.131C10.0752 258.389 10.1074 258.661 10.1074 258.948C10.1074 259.564 9.95703 260.11 9.65625 260.586C9.35189 261.062 8.92041 261.433 8.36182 261.698C7.79964 261.959 7.14974 262.093 6.41211 262.101L5.84814 262.101C5.09619 262.101 4.43197 261.97 3.85547 261.708C3.27897 261.447 2.83854 261.078 2.53418 260.602C2.22624 260.122 2.07227 259.574 2.07227 258.958C2.07227 258.328 2.22445 257.775 2.52881 257.299C2.83317 256.819 3.27181 256.45 3.84473 256.192C4.41406 255.935 5.08008 255.806 5.84277 255.806L6.34228 255.806ZM5.8374 256.837C4.91715 256.837 4.20817 257.021 3.71045 257.39C3.20915 257.755 2.9585 258.278 2.9585 258.958C2.9585 259.607 3.20736 260.119 3.70508 260.495C4.19922 260.867 4.88672 261.059 5.76758 261.069L6.34229 261.069C7.23747 261.069 7.94287 260.883 8.4585 260.511C8.97412 260.135 9.23193 259.614 9.23193 258.948C9.23193 258.282 8.99023 257.766 8.50684 257.401C8.01986 257.036 7.3234 256.848 6.41748 256.837L5.8374 256.837ZM9.42529 250.784C9.88005 251.17 10.1074 251.738 10.1074 252.486C10.1074 253.106 9.92839 253.578 9.57031 253.904C9.20866 254.227 8.67513 254.389 7.96973 254.393L4.18848 254.393L4.18848 253.399L7.94287 253.399C8.82373 253.399 9.26416 253.041 9.26416 252.325C9.26416 251.566 8.98128 251.061 8.41553 250.811L4.18848 250.811L4.18848 249.817L10 249.817L10 250.762L9.42529 250.784ZM10.1074 245.891C10.1074 246.678 9.84961 247.319 9.33398 247.813C8.81478 248.308 8.12191 248.555 7.25537 248.555L7.07275 248.555C6.49626 248.555 5.98242 248.445 5.53125 248.227C5.0765 248.005 4.722 247.697 4.46777 247.303C4.20996 246.906 4.08105 246.476 4.08105 246.014C4.08105 245.259 4.32991 244.671 4.82764 244.252C5.32536 243.833 6.03792 243.624 6.96533 243.624L7.37891 243.624L7.37891 247.561C7.95182 247.547 8.41553 247.38 8.77002 247.062C9.12093 246.739 9.29639 246.331 9.29639 245.837C9.29639 245.486 9.22477 245.189 9.08154 244.945C8.93831 244.702 8.74853 244.489 8.51221 244.306L8.98486 243.699C9.73323 244.186 10.1074 244.917 10.1074 245.891ZM4.89746 246.014C4.89746 246.415 5.04427 246.752 5.33789 247.024C5.62793 247.296 6.03613 247.464 6.5625 247.529L6.5625 244.618L6.4873 244.618C5.98242 244.646 5.59212 244.782 5.31641 245.026C5.03711 245.269 4.89746 245.599 4.89746 246.014ZM5.08008 239.66C5.05501 239.811 5.04248 239.973 5.04248 240.149C5.04248 240.801 5.31999 241.243 5.875 241.476L10 241.476L10 242.469L4.18848 242.469L4.18848 241.502L4.85986 241.486C4.34066 241.16 4.08105 240.699 4.08105 240.101C4.08105 239.907 4.10612 239.76 4.15625 239.66L5.08008 239.66ZM10 237.662L10 238.656L4.18848 238.656L4.18848 237.662L10 237.662ZM2.64697 238.736C2.48584 238.736 2.34977 238.688 2.23877 238.591C2.12777 238.491 2.07226 238.344 2.07226 238.151C2.07226 237.958 2.12777 237.811 2.23877 237.71C2.34977 237.61 2.48584 237.56 2.64697 237.56C2.8081 237.56 2.94238 237.61 3.0498 237.71C3.15723 237.811 3.21094 237.958 3.21094 238.151C3.21094 238.344 3.15723 238.491 3.0498 238.591C2.94238 238.688 2.8081 238.736 2.64697 238.736ZM10.1074 233.655C10.1074 234.443 9.84961 235.084 9.33398 235.578C8.81478 236.072 8.12191 236.319 7.25537 236.319L7.07275 236.319C6.49626 236.319 5.98242 236.21 5.53125 235.992C5.0765 235.77 4.722 235.462 4.46777 235.068C4.20996 234.67 4.08105 234.241 4.08105 233.779C4.08105 233.023 4.32991 232.436 4.82764 232.017C5.32536 231.598 6.03792 231.389 6.96533 231.389L7.3789 231.389L7.37891 235.326C7.95182 235.311 8.41553 235.145 8.77002 234.826C9.12093 234.504 9.29639 234.096 9.29639 233.602C9.29639 233.251 9.22477 232.953 9.08154 232.71C8.93831 232.466 8.74853 232.253 8.51221 232.071L8.98486 231.464C9.73323 231.951 10.1074 232.681 10.1074 233.655ZM4.89746 233.779C4.89746 234.18 5.04427 234.516 5.33789 234.789C5.62793 235.061 6.03613 235.229 6.5625 235.293L6.5625 232.382L6.4873 232.382C5.98242 232.411 5.59212 232.547 5.3164 232.791C5.03711 233.034 4.89746 233.363 4.89746 233.779ZM8.45849 226.85C8.18994 226.85 7.98226 226.952 7.83545 227.156C7.68506 227.357 7.55615 227.709 7.44873 228.214C7.34131 228.716 7.2124 229.115 7.06201 229.412C6.91162 229.706 6.73258 229.924 6.5249 230.067C6.31722 230.207 6.07015 230.277 5.78369 230.277C5.30745 230.277 4.90462 230.076 4.57519 229.675C4.24577 229.271 4.08105 228.755 4.08105 228.128C4.08105 227.47 4.25114 226.936 4.59131 226.528C4.93148 226.116 5.36653 225.91 5.89648 225.91L5.89648 226.909C5.62435 226.909 5.38981 227.026 5.19287 227.258C4.99593 227.487 4.89746 227.778 4.89746 228.128C4.89746 228.49 4.97624 228.773 5.13379 228.977C5.29134 229.181 5.49723 229.283 5.75146 229.283C5.99137 229.283 6.1722 229.188 6.29394 228.999C6.41569 228.809 6.53206 228.467 6.64306 227.973C6.75407 227.475 6.88655 227.072 7.04053 226.764C7.1945 226.456 7.3807 226.229 7.59912 226.082C7.81396 225.932 8.07715 225.856 8.38867 225.856C8.90788 225.856 9.32503 226.064 9.64014 226.479C9.95166 226.895 10.1074 227.434 10.1074 228.096C10.1074 228.562 10.0251 228.973 9.86035 229.332C9.69564 229.69 9.46647 229.971 9.17285 230.175C8.87565 230.375 8.55517 230.476 8.21142 230.476L8.21142 229.482C8.54443 229.464 8.80941 229.332 9.00635 229.084C9.19971 228.834 9.29639 228.504 9.29639 228.096C9.29639 227.72 9.22119 227.419 9.0708 227.194C8.91683 226.965 8.71273 226.85 8.45849 226.85Z" fill="black"/>
<rect x="193.5" y="22.5" width="49" height="169" rx="1.5" fill="#D9E2F2" stroke="#8EA7D7"/>
<path d="M213.091 108.974C212.826 109.354 212.455 109.638 211.979 109.828C211.506 110.014 210.955 110.107 210.325 110.107C209.687 110.107 209.122 109.959 208.627 109.662C208.133 109.361 207.75 108.935 207.478 108.383C207.209 107.832 207.072 107.193 207.064 106.466V105.784C207.064 104.606 207.338 103.693 207.886 103.044C208.438 102.396 209.211 102.072 210.207 102.072C211.023 102.072 211.68 102.282 212.178 102.701C212.675 103.116 212.98 103.707 213.091 104.473H212.06C211.866 103.438 211.25 102.921 210.212 102.921C209.521 102.921 208.996 103.164 208.638 103.651C208.284 104.135 208.105 104.837 208.101 105.757V106.396C208.101 107.273 208.302 107.972 208.703 108.491C209.104 109.006 209.646 109.264 210.33 109.264C210.717 109.264 211.055 109.221 211.345 109.135C211.635 109.049 211.875 108.904 212.065 108.7V106.944H210.255V106.106H213.091V108.974ZM220.825 110H219.789L215.852 103.974V110H214.815V102.18H215.852L219.799 108.233V102.18H220.825V110ZM228.667 110H227.63L223.693 103.974V110H222.657V102.18H223.693L227.641 108.233V102.18H228.667V110Z" fill="black"/>
<rect x="362.5" y="219.5" width="99" height="47" rx="1.5" fill="#D9E2F2" stroke="#8EA7D7"/>
<path d="M389.043 237.519C388.947 238.346 388.641 238.985 388.125 239.436C387.613 239.884 386.931 240.107 386.079 240.107C385.155 240.107 384.414 239.776 383.855 239.114C383.3 238.451 383.022 237.565 383.022 236.455V235.703C383.022 234.976 383.151 234.337 383.409 233.786C383.671 233.234 384.039 232.812 384.516 232.518C384.992 232.221 385.543 232.072 386.17 232.072C387.001 232.072 387.667 232.305 388.168 232.771C388.669 233.232 388.961 233.873 389.043 234.693H388.007C387.917 234.07 387.722 233.619 387.421 233.34C387.124 233.061 386.707 232.921 386.17 232.921C385.511 232.921 384.994 233.164 384.618 233.651C384.245 234.138 384.059 234.831 384.059 235.73V236.487C384.059 237.336 384.236 238.011 384.591 238.512C384.945 239.014 385.441 239.264 386.079 239.264C386.652 239.264 387.09 239.135 387.395 238.877C387.702 238.616 387.907 238.163 388.007 237.519H389.043ZM390.037 237.041C390.037 236.471 390.148 235.959 390.37 235.504C390.596 235.05 390.907 234.699 391.305 234.452C391.706 234.205 392.162 234.081 392.674 234.081C393.466 234.081 394.105 234.355 394.592 234.903C395.082 235.451 395.328 236.179 395.328 237.089V237.159C395.328 237.724 395.218 238.233 395 238.684C394.785 239.132 394.475 239.481 394.071 239.731C393.67 239.982 393.208 240.107 392.685 240.107C391.897 240.107 391.258 239.833 390.768 239.286C390.281 238.738 390.037 238.013 390.037 237.11V237.041ZM391.036 237.159C391.036 237.803 391.185 238.321 391.482 238.711C391.783 239.101 392.184 239.296 392.685 239.296C393.19 239.296 393.591 239.099 393.888 238.706C394.185 238.308 394.334 237.753 394.334 237.041C394.334 236.403 394.182 235.888 393.877 235.494C393.577 235.096 393.176 234.897 392.674 234.897C392.184 234.897 391.788 235.093 391.487 235.483C391.187 235.873 391.036 236.432 391.036 237.159ZM397.508 234.188L397.535 234.833C397.961 234.332 398.536 234.081 399.259 234.081C400.072 234.081 400.625 234.393 400.919 235.016C401.112 234.736 401.363 234.511 401.671 234.339C401.982 234.167 402.349 234.081 402.772 234.081C404.047 234.081 404.695 234.756 404.716 236.106V240H403.723V236.165C403.723 235.75 403.628 235.44 403.438 235.236C403.248 235.028 402.93 234.924 402.482 234.924C402.113 234.924 401.807 235.035 401.563 235.257C401.32 235.476 401.179 235.771 401.139 236.144V240H400.14V236.192C400.14 235.347 399.727 234.924 398.899 234.924C398.248 234.924 397.802 235.202 397.562 235.757V240H396.568V234.188H397.508ZM411.129 237.159C411.129 238.043 410.927 238.756 410.522 239.296C410.118 239.837 409.57 240.107 408.879 240.107C408.174 240.107 407.618 239.884 407.214 239.436V242.234H406.22V234.188H407.128L407.176 234.833C407.581 234.332 408.143 234.081 408.863 234.081C409.561 234.081 410.112 234.344 410.517 234.871C410.925 235.397 411.129 236.129 411.129 237.067V237.159ZM410.136 237.046C410.136 236.391 409.996 235.873 409.717 235.494C409.438 235.114 409.054 234.924 408.567 234.924C407.966 234.924 407.515 235.191 407.214 235.725V238.501C407.511 239.031 407.966 239.296 408.578 239.296C409.054 239.296 409.432 239.108 409.711 238.732C409.994 238.353 410.136 237.791 410.136 237.046ZM415.985 240C415.928 239.885 415.881 239.681 415.845 239.388C415.383 239.868 414.832 240.107 414.191 240.107C413.618 240.107 413.147 239.946 412.778 239.624C412.413 239.298 412.23 238.886 412.23 238.389C412.23 237.784 412.46 237.314 412.918 236.981C413.38 236.645 414.028 236.477 414.862 236.477H415.829V236.02C415.829 235.673 415.725 235.397 415.518 235.193C415.31 234.985 415.004 234.881 414.599 234.881C414.245 234.881 413.947 234.971 413.708 235.15C413.468 235.329 413.348 235.546 413.348 235.8H412.349C412.349 235.51 412.451 235.23 412.655 234.962C412.862 234.69 413.142 234.475 413.493 234.317C413.847 234.16 414.236 234.081 414.658 234.081C415.328 234.081 415.852 234.249 416.232 234.586C416.611 234.919 416.808 235.379 416.823 235.966V238.641C416.823 239.175 416.891 239.599 417.027 239.914V240H415.985ZM414.336 239.243C414.647 239.243 414.943 239.162 415.222 239.001C415.501 238.84 415.704 238.63 415.829 238.373V237.18H415.05C413.833 237.18 413.224 237.536 413.224 238.249C413.224 238.561 413.328 238.804 413.536 238.979C413.743 239.155 414.01 239.243 414.336 239.243ZM421.189 235.08C421.039 235.055 420.876 235.042 420.701 235.042C420.049 235.042 419.607 235.32 419.374 235.875V240H418.38V234.188H419.347L419.363 234.86C419.689 234.341 420.151 234.081 420.749 234.081C420.942 234.081 421.089 234.106 421.189 234.156V235.08ZM425.481 240C425.424 239.885 425.377 239.681 425.341 239.388C424.879 239.868 424.328 240.107 423.687 240.107C423.114 240.107 422.643 239.946 422.274 239.624C421.909 239.298 421.727 238.886 421.727 238.389C421.727 237.784 421.956 237.314 422.414 236.981C422.876 236.645 423.524 236.477 424.358 236.477H425.325V236.02C425.325 235.673 425.221 235.397 425.014 235.193C424.806 234.985 424.5 234.881 424.095 234.881C423.741 234.881 423.444 234.971 423.204 235.15C422.964 235.329 422.844 235.546 422.844 235.8H421.845C421.845 235.51 421.947 235.23 422.151 234.962C422.359 234.69 422.638 234.475 422.989 234.317C423.343 234.16 423.732 234.081 424.154 234.081C424.824 234.081 425.348 234.249 425.728 234.586C426.108 234.919 426.305 235.379 426.319 235.966V238.641C426.319 239.175 426.387 239.599 426.523 239.914V240H425.481ZM423.832 239.243C424.144 239.243 424.439 239.162 424.718 239.001C424.998 238.84 425.2 238.63 425.325 238.373V237.18H424.546C423.329 237.18 422.72 237.536 422.72 238.249C422.72 238.561 422.824 238.804 423.032 238.979C423.239 239.155 423.506 239.243 423.832 239.243ZM429.225 232.781V234.188H430.31V234.957H429.225V238.561C429.225 238.793 429.273 238.969 429.37 239.087C429.466 239.201 429.631 239.259 429.864 239.259C429.978 239.259 430.136 239.237 430.336 239.194V240C430.075 240.072 429.821 240.107 429.574 240.107C429.13 240.107 428.795 239.973 428.569 239.705C428.344 239.436 428.231 239.055 428.231 238.561V234.957H427.173V234.188H428.231V232.781H429.225ZM431.104 237.041C431.104 236.471 431.215 235.959 431.438 235.504C431.663 235.05 431.975 234.699 432.372 234.452C432.773 234.205 433.23 234.081 433.742 234.081C434.533 234.081 435.172 234.355 435.659 234.903C436.15 235.451 436.395 236.179 436.395 237.089V237.159C436.395 237.724 436.286 238.233 436.067 238.684C435.853 239.132 435.543 239.481 435.138 239.731C434.737 239.982 434.275 240.107 433.752 240.107C432.965 240.107 432.326 239.833 431.835 239.286C431.348 238.738 431.104 238.013 431.104 237.11V237.041ZM432.104 237.159C432.104 237.803 432.252 238.321 432.549 238.711C432.85 239.101 433.251 239.296 433.752 239.296C434.257 239.296 434.658 239.099 434.956 238.706C435.253 238.308 435.401 237.753 435.401 237.041C435.401 236.403 435.249 235.888 434.945 235.494C434.644 235.096 434.243 234.897 433.742 234.897C433.251 234.897 432.855 235.093 432.555 235.483C432.254 235.873 432.104 236.432 432.104 237.159ZM440.45 235.08C440.3 235.055 440.137 235.042 439.961 235.042C439.31 235.042 438.868 235.32 438.635 235.875V240H437.641V234.188H438.608L438.624 234.86C438.95 234.341 439.412 234.081 440.01 234.081C440.203 234.081 440.35 234.106 440.45 234.156V235.08ZM397.857 253H396.821L392.884 246.974V253H391.847V245.18H392.884L396.832 251.233V245.18H397.857V253ZM401.945 253.107C401.157 253.107 400.516 252.85 400.022 252.334C399.528 251.815 399.281 251.122 399.281 250.255V250.073C399.281 249.496 399.39 248.982 399.608 248.531C399.83 248.076 400.138 247.722 400.532 247.468C400.93 247.21 401.359 247.081 401.821 247.081C402.577 247.081 403.164 247.33 403.583 247.828C404.002 248.325 404.211 249.038 404.211 249.965V250.379H400.274C400.289 250.952 400.455 251.416 400.774 251.77C401.096 252.121 401.504 252.296 401.999 252.296C402.349 252.296 402.647 252.225 402.89 252.082C403.134 251.938 403.347 251.749 403.529 251.512L404.136 251.985C403.649 252.733 402.919 253.107 401.945 253.107ZM401.821 247.897C401.42 247.897 401.084 248.044 400.812 248.338C400.539 248.628 400.371 249.036 400.307 249.562H403.218V249.487C403.189 248.982 403.053 248.592 402.81 248.316C402.566 248.037 402.237 247.897 401.821 247.897ZM406.714 245.781V247.188H407.799V247.957H406.714V251.561C406.714 251.793 406.763 251.969 406.859 252.087C406.956 252.201 407.121 252.259 407.354 252.259C407.468 252.259 407.626 252.237 407.826 252.194V253C407.565 253.072 407.311 253.107 407.063 253.107C406.619 253.107 406.285 252.973 406.059 252.705C405.833 252.436 405.721 252.055 405.721 251.561V247.957H404.663V247.188H405.721V245.781H406.714ZM414.11 251.63L415.228 247.188H416.221L414.529 253H413.724L412.311 248.596L410.936 253H410.13L408.444 247.188H409.432L410.576 251.539L411.93 247.188H412.73L414.11 251.63ZM416.973 250.041C416.973 249.471 417.084 248.959 417.306 248.504C417.532 248.05 417.843 247.699 418.241 247.452C418.642 247.205 419.098 247.081 419.61 247.081C420.402 247.081 421.041 247.355 421.528 247.903C422.018 248.451 422.264 249.179 422.264 250.089V250.159C422.264 250.724 422.154 251.233 421.936 251.684C421.721 252.132 421.411 252.481 421.007 252.731C420.606 252.982 420.144 253.107 419.621 253.107C418.833 253.107 418.194 252.833 417.704 252.286C417.217 251.738 416.973 251.013 416.973 250.11V250.041ZM417.972 250.159C417.972 250.803 418.121 251.321 418.418 251.711C418.719 252.101 419.12 252.296 419.621 252.296C420.126 252.296 420.527 252.099 420.824 251.706C421.121 251.308 421.27 250.753 421.27 250.041C421.27 249.403 421.118 248.888 420.813 248.494C420.513 248.096 420.112 247.897 419.61 247.897C419.12 247.897 418.724 248.093 418.423 248.483C418.123 248.873 417.972 249.432 417.972 250.159ZM426.319 248.08C426.168 248.055 426.006 248.042 425.83 248.042C425.178 248.042 424.736 248.32 424.503 248.875V253H423.51V247.188H424.477L424.493 247.86C424.819 247.341 425.28 247.081 425.878 247.081C426.072 247.081 426.219 247.106 426.319 247.156V248.08ZM428.859 250.309L428.236 250.959V253H427.243V244.75H428.236V249.74L428.768 249.101L430.578 247.188H431.787L429.525 249.616L432.05 253H430.884L428.859 250.309Z" fill="black"/>
<rect x="272.5" y="70.5" width="39" height="73" rx="1.5" stroke="black"/>
<path d="M288.54 108.809C288.443 108.809 288.345 108.629 288.411 108.558C288.875 108.06 289.298 107.684 289.864 107.175C290.675 106.472 291.026 106.134 291.215 105.932C292.161 105 292.633 104.216 292.633 104.108C292.633 104 292.525 104 292.498 104C292.404 104 292.377 104.054 292.309 104.149C291.971 104.73 291.647 105.013 291.296 105.013C291.012 105.013 290.864 104.892 290.607 104.567C290.323 104.23 290.094 104 289.702 104C288.716 104 288.121 105.229 288.121 105.513C288.121 105.554 288.135 105.635 288.256 105.635C288.364 105.635 288.378 105.581 288.418 105.486C288.648 104.946 289.297 104.851 289.553 104.851C289.837 104.851 290.107 104.946 290.391 105.067C290.904 105.283 291.12 105.283 291.255 105.283C291.327 105.283 291.377 105.38 291.328 105.433C290.88 105.927 290.235 106.501 289.688 106.999L288.324 108.255C287.5 109.093 287 109.89 287 109.985C287 110.066 287.068 110.093 287.149 110.093C287.23 110.093 287.243 110.079 287.338 109.917C287.554 109.579 287.986 109.08 288.486 109.08C288.77 109.08 288.905 109.174 289.175 109.512C289.432 109.809 289.661 110.093 290.094 110.093C291.418 110.093 292.174 108.377 292.174 108.066C292.174 108.012 292.161 107.931 292.025 107.931C291.917 107.931 291.904 107.985 291.863 108.12C291.566 108.917 290.769 109.242 290.242 109.242C289.959 109.242 289.688 109.147 289.405 109.025C288.864 108.809 288.716 108.809 288.54 108.809Z" fill="#B33535"/>
<path d="M295.392 106.247C295.392 105.956 295.023 106.124 294.772 106.272C294.477 106.447 294.103 106.553 293.577 106.569C293.495 106.572 293.429 106.638 293.429 106.72C293.429 106.802 293.495 106.869 293.577 106.867C293.676 106.865 293.795 106.859 293.928 106.841C294.291 106.793 294.68 107.045 294.68 107.411V111.246C294.68 111.579 294.653 111.687 293.798 111.687H293.626C293.547 111.687 293.483 111.751 293.483 111.83C293.483 111.913 293.553 111.979 293.636 111.975C294.037 111.957 294.676 111.957 295.032 111.957C295.387 111.957 296.033 111.957 296.436 111.975C296.519 111.979 296.59 111.913 296.59 111.83C296.59 111.751 296.526 111.687 296.447 111.687H296.274C295.419 111.687 295.392 111.579 295.392 111.246V106.247Z" fill="#B33535"/>
<path d="M288.54 80.8093C288.443 80.8093 288.345 80.6287 288.411 80.5577C288.875 80.0601 289.298 79.6837 289.864 79.1747C290.675 78.4722 291.026 78.1345 291.215 77.9318C292.161 76.9997 292.633 76.2161 292.633 76.1081C292.633 76 292.525 76 292.498 76C292.404 76 292.377 76.054 292.309 76.1486C291.971 76.7295 291.647 77.0132 291.296 77.0132C291.012 77.0132 290.864 76.8916 290.607 76.5674C290.323 76.2297 290.094 76 289.702 76C288.716 76 288.121 77.2293 288.121 77.513C288.121 77.5536 288.135 77.6346 288.256 77.6346C288.364 77.6346 288.378 77.5806 288.418 77.486C288.648 76.9457 289.297 76.8511 289.553 76.8511C289.837 76.8511 290.107 76.9457 290.391 77.0672C290.904 77.2834 291.12 77.2834 291.255 77.2834C291.327 77.2834 291.377 77.3797 291.328 77.4328C290.88 77.9266 290.235 78.5011 289.688 78.9991L288.324 80.2554C287.5 81.093 287 81.8901 287 81.9846C287 82.0657 287.068 82.0927 287.149 82.0927C287.23 82.0927 287.243 82.0792 287.338 81.9171C287.554 81.5794 287.986 81.0795 288.486 81.0795C288.77 81.0795 288.905 81.1741 289.175 81.5118C289.432 81.809 289.661 82.0927 290.094 82.0927C291.418 82.0927 292.174 80.377 292.174 80.0663C292.174 80.0123 292.161 79.9312 292.025 79.9312C291.917 79.9312 291.904 79.9853 291.863 80.1203C291.566 80.9174 290.769 81.2416 290.242 81.2416C289.959 81.2416 289.688 81.1471 289.405 81.0255C288.864 80.8093 288.716 80.8093 288.54 80.8093Z" fill="#355FB3"/>
<path d="M296.968 81.111C296.968 80.1474 296.869 79.562 296.572 78.9856C296.175 78.193 295.446 77.9949 294.951 77.9949C293.816 77.9949 293.401 78.8415 293.275 79.0936C292.951 79.7511 292.933 80.6427 292.933 81.111C292.933 81.7054 292.96 82.6151 293.392 83.3356C293.807 84.002 294.473 84.1731 294.951 84.1731C295.383 84.1731 296.157 84.0381 296.608 83.1464C296.941 82.498 296.968 81.6964 296.968 81.111ZM294.951 83.921C294.644 83.921 294.023 83.7769 293.834 82.8312C293.735 82.3179 293.735 81.4713 293.735 81.003C293.735 80.3815 293.735 79.7511 293.834 79.2557C294.023 78.3371 294.725 78.247 294.951 78.247C295.257 78.247 295.878 78.4002 296.058 79.2197C296.166 79.7151 296.166 80.3905 296.166 81.003C296.166 81.5343 296.166 82.3449 296.058 82.8492C295.869 83.7949 295.248 83.921 294.951 83.921Z" fill="#355FB3"/>
<path d="M193 78.5116L188 75.6249V81.3984L193 78.5116ZM152 79.0116H188.5V78.0116H152V79.0116ZM152.5 78.5116V27H151.5V78.5116H152.5ZM151.5 78.5116V137H152.5V78.5116H151.5ZM151.5 137C151.5 139.485 149.485 141.5 147 141.5V142.5C150.038 142.5 152.5 140.038 152.5 137H151.5ZM152.5 27C152.5 23.9624 150.038 21.5 147 21.5V22.5C149.485 22.5 151.5 24.5147 151.5 27H152.5Z" fill="black"/>
<path d="M193 172L188 169.113V174.887L193 172ZM143 172.5H188.5V171.5H143V172.5Z" fill="black"/>
<path d="M272 107L267 104.113V109.887L272 107ZM243 107.5H267.5V106.5H243V107.5Z" fill="black"/>
<path d="M292 219L294.887 214H289.113L292 219ZM291.5 144V214.5H292.5V144H291.5Z" fill="black"/>
<path d="M262 244L257 241.113V246.887L262 244ZM113 244.5H257.5V243.5H113V244.5Z" fill="black"/>
<path d="M362 244L357 241.113V246.887L362 244ZM322 244.5H357.5V243.5H322V244.5Z" fill="black"/>
<path d="M502 244L497 241.113V246.887L502 244ZM462 244.5H497.5V243.5H462V244.5Z" fill="black"/>
<path d="M70.4025 225.122C70.4025 225 70.3079 225 70.2809 225C70.2539 225 70.1999 225 70.0918 225.135L69.1596 226.256C69.0921 226.148 68.8219 225.675 68.295 225.365C67.7141 225 67.1332 225 66.9306 225C64.0396 225 61 227.945 61 231.133C61 233.362 62.5401 234.794 64.5665 234.794C65.5391 234.794 66.7685 234.47 67.444 233.619C67.5926 234.132 67.8898 234.497 67.9843 234.497C68.0519 234.497 68.0654 234.457 68.0789 234.457C68.0924 234.43 68.2005 233.957 68.268 233.714L68.4842 232.849C68.5922 232.403 68.6463 232.214 68.7409 231.809C68.8759 231.295 68.903 231.255 69.646 231.241C69.7 231.241 69.8621 231.241 69.8621 230.985C69.8621 230.85 69.727 230.85 69.6865 230.85C69.4568 230.85 69.2002 230.877 68.957 230.877H68.2275C67.6601 230.877 67.0657 230.85 66.5118 230.85C66.3902 230.85 66.2281 230.85 66.2281 231.093C66.2281 231.228 66.3362 231.228 66.3362 231.241H66.6739C67.7412 231.241 67.7412 231.349 67.7412 231.552C67.7412 231.566 67.4845 232.93 67.2278 233.335C66.7145 234.092 65.6472 234.403 64.8502 234.403C63.8099 234.403 62.1213 233.862 62.1213 231.525C62.1213 230.62 62.4455 228.553 63.7559 227.026C64.607 226.054 65.8634 225.392 67.0522 225.392C68.6463 225.392 69.2137 226.756 69.2137 227.999C69.2137 228.215 69.1596 228.512 69.1596 228.702C69.1596 228.823 69.2947 228.823 69.3353 228.823C69.4839 228.823 69.4974 228.81 69.5514 228.566L70.4025 225.122Z" fill="#355FB3"/>
<path d="M75.1626 233.664C75.1626 232.7 75.0635 232.115 74.7663 231.539C74.37 230.746 73.6405 230.548 73.1452 230.548C72.0104 230.548 71.5961 231.394 71.47 231.647C71.1458 232.304 71.1278 233.196 71.1278 233.664C71.1278 234.258 71.1548 235.168 71.5871 235.889C72.0014 236.555 72.6678 236.726 73.1452 236.726C73.5775 236.726 74.352 236.591 74.8023 235.699C75.1355 235.051 75.1626 234.249 75.1626 233.664ZM73.1452 236.474C72.839 236.474 72.2175 236.33 72.0284 235.384C71.9293 234.871 71.9293 234.024 71.9293 233.556C71.9293 232.934 71.9293 232.304 72.0284 231.809C72.2175 230.89 72.92 230.8 73.1452 230.8C73.4514 230.8 74.0728 230.953 74.2529 231.773C74.361 232.268 74.361 232.943 74.361 233.556C74.361 234.087 74.361 234.898 74.2529 235.402C74.0638 236.348 73.4424 236.474 73.1452 236.474Z" fill="#355FB3"/>
<path d="M100.403 225.122C100.403 225 100.308 225 100.281 225C100.254 225 100.2 225 100.092 225.135L99.1596 226.256C99.0921 226.148 98.8219 225.675 98.295 225.365C97.7141 225 97.1332 225 96.9306 225C94.0396 225 91 227.945 91 231.133C91 233.362 92.5401 234.794 94.5665 234.794C95.5391 234.794 96.7685 234.47 97.444 233.619C97.5926 234.132 97.8898 234.497 97.9843 234.497C98.0519 234.497 98.0654 234.457 98.0789 234.457C98.0924 234.43 98.2005 233.957 98.268 233.714L98.4842 232.849C98.5922 232.403 98.6463 232.214 98.7409 231.809C98.8759 231.295 98.903 231.255 99.646 231.241C99.7 231.241 99.8621 231.241 99.8621 230.985C99.8621 230.85 99.727 230.85 99.6865 230.85C99.4568 230.85 99.2002 230.877 98.957 230.877H98.2275C97.6601 230.877 97.0657 230.85 96.5118 230.85C96.3902 230.85 96.2281 230.85 96.2281 231.093C96.2281 231.228 96.3362 231.228 96.3362 231.241H96.6739C97.7412 231.241 97.7412 231.349 97.7412 231.552C97.7412 231.566 97.4845 232.93 97.2278 233.335C96.7145 234.092 95.6472 234.403 94.8502 234.403C93.8099 234.403 92.1213 233.862 92.1213 231.525C92.1213 230.62 92.4455 228.553 93.7559 227.026C94.607 226.054 95.8634 225.392 97.0522 225.392C98.6463 225.392 99.2137 226.756 99.2137 227.999C99.2137 228.215 99.1596 228.512 99.1596 228.702C99.1596 228.823 99.2947 228.823 99.3353 228.823C99.4839 228.823 99.4974 228.81 99.5514 228.566L100.403 225.122Z" fill="#B33535"/>
<path d="M103.586 230.8C103.586 230.557 103.568 230.548 103.325 230.548C102.956 230.908 102.479 231.124 101.623 231.124V231.421C101.866 231.421 102.353 231.421 102.875 231.178V235.798C102.875 236.132 102.848 236.24 101.992 236.24H101.677V236.537C102.046 236.51 102.821 236.51 103.226 236.51C103.632 236.51 104.415 236.51 104.784 236.537V236.24H104.469C103.614 236.24 103.586 236.132 103.586 235.798V230.8Z" fill="#B33535"/>
<path d="M81.9175 231.798C81.9246 231.372 81.973 231.035 82.0625 230.788C82.152 230.541 82.3346 230.267 82.6104 229.966L83.314 229.241C83.6147 228.901 83.7651 228.536 83.7651 228.146C83.7651 227.77 83.6667 227.476 83.4697 227.265C83.2728 227.05 82.9863 226.942 82.6104 226.942C82.2451 226.942 81.9515 227.039 81.7295 227.232C81.5075 227.426 81.3965 227.685 81.3965 228.011H80.4028C80.41 227.431 80.6159 226.964 81.0205 226.609C81.4287 226.251 81.9587 226.072 82.6104 226.072C83.2871 226.072 83.8135 226.255 84.1895 226.62C84.569 226.982 84.7588 227.479 84.7588 228.113C84.7588 228.74 84.4688 229.358 83.8887 229.966L83.3032 230.546C83.0418 230.836 82.9111 231.254 82.9111 231.798H81.9175ZM81.8745 233.5C81.8745 233.339 81.9229 233.205 82.0195 233.098C82.1198 232.987 82.2666 232.931 82.46 232.931C82.6533 232.931 82.8001 232.987 82.9004 233.098C83.0007 233.205 83.0508 233.339 83.0508 233.5C83.0508 233.662 83.0007 233.796 82.9004 233.903C82.8001 234.007 82.6533 234.059 82.46 234.059C82.2666 234.059 82.1198 234.007 82.0195 233.903C81.9229 233.796 81.8745 233.662 81.8745 233.5Z" fill="black"/>
<rect x="53.5" y="219.5" width="59" height="47" rx="1.5" stroke="black"/>
<path d="M100.403 249.122C100.403 249 100.308 249 100.281 249C100.254 249 100.2 249 100.092 249.135L99.1596 250.256C99.0921 250.148 98.8219 249.675 98.295 249.365C97.7141 249 97.1332 249 96.9306 249C94.0396 249 91 251.945 91 255.133C91 257.362 92.5401 258.794 94.5665 258.794C95.5391 258.794 96.7685 258.47 97.444 257.619C97.5926 258.132 97.8898 258.497 97.9843 258.497C98.0519 258.497 98.0654 258.457 98.0789 258.457C98.0924 258.43 98.2005 257.957 98.268 257.714L98.4842 256.849C98.5922 256.403 98.6463 256.214 98.7409 255.809C98.8759 255.295 98.903 255.255 99.646 255.241C99.7 255.241 99.8621 255.241 99.8621 254.985C99.8621 254.85 99.727 254.85 99.6865 254.85C99.4568 254.85 99.2002 254.877 98.957 254.877H98.2275C97.6601 254.877 97.0657 254.85 96.5118 254.85C96.3902 254.85 96.2281 254.85 96.2281 255.093C96.2281 255.228 96.3362 255.228 96.3362 255.241H96.6739C97.7412 255.241 97.7412 255.349 97.7412 255.552C97.7412 255.566 97.4845 256.93 97.2278 257.335C96.7145 258.092 95.6472 258.403 94.8502 258.403C93.8099 258.403 92.1213 257.862 92.1213 255.525C92.1213 254.62 92.4455 252.553 93.7559 251.026C94.607 250.054 95.8634 249.392 97.0522 249.392C98.6463 249.392 99.2137 250.756 99.2137 251.999C99.2137 252.215 99.1596 252.512 99.1596 252.702C99.1596 252.823 99.2947 252.823 99.3353 252.823C99.4839 252.823 99.4974 252.81 99.5514 252.566L100.403 249.122Z" fill="#B33535"/>
<path d="M103.586 254.8C103.586 254.557 103.568 254.548 103.325 254.548C102.956 254.908 102.479 255.124 101.623 255.124V255.421C101.866 255.421 102.353 255.421 102.875 255.178V259.798C102.875 260.132 102.848 260.24 101.992 260.24H101.677V260.537C102.046 260.51 102.821 260.51 103.226 260.51C103.632 260.51 104.415 260.51 104.784 260.537V260.24H104.469C103.614 260.24 103.586 260.132 103.586 259.798V254.8Z" fill="#B33535"/>
<path d="M70.4025 249.122C70.4025 249 70.3079 249 70.2809 249C70.2539 249 70.1999 249 70.0918 249.135L69.1596 250.256C69.0921 250.148 68.8219 249.675 68.295 249.365C67.7141 249 67.1332 249 66.9306 249C64.0396 249 61 251.945 61 255.133C61 257.362 62.5401 258.794 64.5665 258.794C65.5391 258.794 66.7685 258.47 67.444 257.619C67.5926 258.132 67.8898 258.497 67.9843 258.497C68.0519 258.497 68.0654 258.457 68.0789 258.457C68.0924 258.43 68.2005 257.957 68.268 257.714L68.4842 256.849C68.5922 256.403 68.6463 256.214 68.7409 255.809C68.8759 255.295 68.903 255.255 69.646 255.241C69.7 255.241 69.8621 255.241 69.8621 254.985C69.8621 254.85 69.727 254.85 69.6865 254.85C69.4568 254.85 69.2002 254.877 68.957 254.877H68.2275C67.6601 254.877 67.0657 254.85 66.5118 254.85C66.3902 254.85 66.2281 254.85 66.2281 255.093C66.2281 255.228 66.3362 255.228 66.3362 255.241H66.6739C67.7412 255.241 67.7412 255.349 67.7412 255.552C67.7412 255.566 67.4845 256.93 67.2278 257.335C66.7145 258.092 65.6472 258.403 64.8502 258.403C63.8099 258.403 62.1213 257.862 62.1213 255.525C62.1213 254.62 62.4455 252.553 63.7559 251.026C64.607 250.054 65.8634 249.392 67.0522 249.392C68.6463 249.392 69.2137 250.756 69.2137 251.999C69.2137 252.215 69.1596 252.512 69.1596 252.702C69.1596 252.823 69.2947 252.823 69.3353 252.823C69.4839 252.823 69.4974 252.81 69.5514 252.566L70.4025 249.122Z" fill="#22661E"/>
<path d="M73.2983 258.7C73.4424 258.565 73.8207 258.267 73.9648 258.141C74.5231 257.628 75.0545 257.133 75.0545 256.313C75.0545 255.241 74.1539 254.548 73.0281 254.548C71.9474 254.548 71.2359 255.367 71.2359 256.169C71.2359 256.61 71.5871 256.673 71.7132 256.673C71.9023 256.673 72.1815 256.538 72.1815 256.196C72.1815 255.728 71.7312 255.728 71.6231 255.728C71.8843 255.07 72.4877 254.845 72.929 254.845C73.7666 254.845 74.1989 255.557 74.1989 256.313C74.1989 257.25 73.5415 257.934 72.4787 259.024L71.3439 260.195C71.2359 260.294 71.2359 260.312 71.2359 260.537H74.7933L75.0545 258.925H74.7753C74.7483 259.105 74.6762 259.555 74.5682 259.726C74.5141 259.798 73.8297 259.798 73.6856 259.798H72.0825L73.2983 258.7Z" fill="#22661E"/>
<path d="M81.9175 255.798C81.9246 255.372 81.973 255.035 82.0625 254.788C82.152 254.541 82.3346 254.267 82.6104 253.966L83.314 253.241C83.6147 252.901 83.7651 252.536 83.7651 252.146C83.7651 251.77 83.6667 251.476 83.4697 251.265C83.2728 251.05 82.9863 250.942 82.6104 250.942C82.2451 250.942 81.9515 251.039 81.7295 251.232C81.5075 251.426 81.3965 251.685 81.3965 252.011H80.4028C80.41 251.431 80.6159 250.964 81.0205 250.609C81.4287 250.251 81.9587 250.072 82.6104 250.072C83.2871 250.072 83.8135 250.255 84.1895 250.62C84.569 250.982 84.7588 251.479 84.7588 252.113C84.7588 252.74 84.4688 253.358 83.8887 253.966L83.3032 254.546C83.0418 254.836 82.9111 255.254 82.9111 255.798H81.9175ZM81.8745 257.5C81.8745 257.339 81.9229 257.205 82.0195 257.098C82.1198 256.987 82.2666 256.931 82.46 256.931C82.6533 256.931 82.8001 256.987 82.9004 257.098C83.0007 257.205 83.0508 257.339 83.0508 257.5C83.0508 257.662 83.0007 257.796 82.9004 257.903C82.8001 258.007 82.6533 258.059 82.46 258.059C82.2666 258.059 82.1198 258.007 82.0195 257.903C81.9229 257.796 81.8745 257.662 81.8745 257.5Z" fill="black"/>
<path d="M288.135 135.863C288.716 135.201 289.189 134.783 289.864 134.175C290.675 133.472 291.026 133.134 291.215 132.932C292.161 132 292.633 131.216 292.633 131.108C292.633 131 292.525 131 292.498 131C292.404 131 292.377 131.054 292.309 131.149C291.971 131.73 291.647 132.013 291.296 132.013C291.012 132.013 290.864 131.892 290.607 131.567C290.323 131.23 290.094 131 289.702 131C288.716 131 288.121 132.229 288.121 132.513C288.121 132.554 288.135 132.635 288.256 132.635C288.364 132.635 288.378 132.581 288.418 132.486C288.648 131.946 289.297 131.851 289.553 131.851C289.837 131.851 290.107 131.946 290.391 132.067C290.904 132.283 291.12 132.283 291.255 132.283C291.35 132.283 291.404 132.283 291.472 132.27C291.026 132.797 290.296 133.445 289.688 133.999L288.324 135.255C287.5 136.093 287 136.89 287 136.985C287 137.066 287.068 137.093 287.149 137.093C287.23 137.093 287.243 137.079 287.338 136.917C287.554 136.579 287.986 136.08 288.486 136.08C288.77 136.08 288.905 136.174 289.175 136.512C289.432 136.809 289.661 137.093 290.094 137.093C291.418 137.093 292.174 135.377 292.174 135.066C292.174 135.012 292.161 134.931 292.025 134.931C291.917 134.931 291.904 134.985 291.863 135.12C291.566 135.917 290.769 136.242 290.242 136.242C289.959 136.242 289.688 136.147 289.405 136.025C288.864 135.809 288.716 135.809 288.54 135.809C288.405 135.809 288.256 135.809 288.135 135.863Z" fill="#22661E"/>
<path d="M295.104 137.147C295.248 137.012 295.626 136.714 295.77 136.588C296.329 136.075 296.86 135.58 296.86 134.76C296.86 133.688 295.959 132.995 294.833 132.995C293.753 132.995 293.041 133.814 293.041 134.616C293.041 135.057 293.392 135.12 293.519 135.12C293.708 135.12 293.987 134.985 293.987 134.643C293.987 134.175 293.537 134.175 293.429 134.175C293.69 133.517 294.293 133.292 294.734 133.292C295.572 133.292 296.004 134.004 296.004 134.76C296.004 135.697 295.347 136.381 294.284 137.471L293.149 138.642C293.041 138.741 293.041 138.759 293.041 138.984H296.599L296.86 137.372H296.581C296.554 137.552 296.482 138.002 296.374 138.173C296.32 138.246 295.635 138.246 295.491 138.246H293.888L295.104 137.147Z" fill="#22661E"/>
<path d="M301.54 232.809C301.443 232.809 301.345 232.629 301.411 232.558C301.875 232.06 302.298 231.684 302.864 231.175C303.675 230.472 304.026 230.134 304.215 229.932C305.161 229 305.633 228.216 305.633 228.108C305.633 228 305.525 228 305.498 228C305.404 228 305.377 228.054 305.309 228.149C304.971 228.73 304.647 229.013 304.296 229.013C304.012 229.013 303.864 228.892 303.607 228.567C303.323 228.23 303.094 228 302.702 228C301.716 228 301.121 229.229 301.121 229.513C301.121 229.554 301.135 229.635 301.256 229.635C301.364 229.635 301.378 229.581 301.418 229.486C301.648 228.946 302.297 228.851 302.553 228.851C302.837 228.851 303.107 228.946 303.391 229.067C303.904 229.283 304.12 229.283 304.255 229.283C304.327 229.283 304.377 229.38 304.328 229.433C303.88 229.927 303.235 230.501 302.688 230.999L301.324 232.255C300.5 233.093 300 233.89 300 233.985C300 234.066 300.068 234.093 300.149 234.093C300.23 234.093 300.243 234.079 300.338 233.917C300.554 233.579 300.986 233.08 301.486 233.08C301.77 233.08 301.905 233.174 302.175 233.512C302.432 233.809 302.661 234.093 303.094 234.093C304.418 234.093 305.174 232.377 305.174 232.066C305.174 232.012 305.161 231.931 305.025 231.931C304.917 231.931 304.904 231.985 304.863 232.12C304.566 232.917 303.769 233.242 303.242 233.242C302.959 233.242 302.688 233.147 302.405 233.025C301.864 232.809 301.716 232.809 301.54 232.809Z" fill="#B33535"/>
<path d="M308.392 230.247C308.392 229.956 308.023 230.124 307.772 230.272C307.477 230.447 307.103 230.552 306.577 230.569C306.495 230.572 306.429 230.638 306.429 230.72C306.429 230.802 306.495 230.869 306.577 230.867C306.676 230.865 306.795 230.859 306.928 230.841C307.291 230.793 307.68 231.045 307.68 231.411V235.245C307.68 235.579 307.653 235.687 306.798 235.687H306.626C306.547 235.687 306.483 235.751 306.483 235.83C306.483 235.913 306.553 235.979 306.636 235.975C307.037 235.957 307.676 235.957 308.032 235.957C308.387 235.957 309.033 235.957 309.436 235.975C309.519 235.979 309.59 235.913 309.59 235.83C309.59 235.751 309.526 235.687 309.447 235.687H309.274C308.419 235.687 308.392 235.579 308.392 235.245V230.247Z" fill="#B33535"/>
<path d="M275.54 232.809C275.443 232.809 275.345 232.629 275.411 232.558C275.875 232.06 276.298 231.684 276.864 231.175C277.675 230.472 278.026 230.134 278.215 229.932C279.161 229 279.633 228.216 279.633 228.108C279.633 228 279.525 228 279.498 228C279.404 228 279.377 228.054 279.309 228.149C278.971 228.73 278.647 229.013 278.296 229.013C278.012 229.013 277.864 228.892 277.607 228.567C277.323 228.23 277.094 228 276.702 228C275.716 228 275.121 229.229 275.121 229.513C275.121 229.554 275.135 229.635 275.256 229.635C275.364 229.635 275.378 229.581 275.418 229.486C275.648 228.946 276.297 228.851 276.553 228.851C276.837 228.851 277.107 228.946 277.391 229.067C277.904 229.283 278.12 229.283 278.255 229.283C278.327 229.283 278.377 229.38 278.328 229.433C277.88 229.927 277.235 230.501 276.688 230.999L275.324 232.255C274.5 233.093 274 233.89 274 233.985C274 234.066 274.068 234.093 274.149 234.093C274.23 234.093 274.243 234.079 274.338 233.917C274.554 233.579 274.986 233.08 275.486 233.08C275.77 233.08 275.905 233.174 276.175 233.512C276.432 233.809 276.661 234.093 277.094 234.093C278.418 234.093 279.174 232.377 279.174 232.066C279.174 232.012 279.161 231.931 279.025 231.931C278.917 231.931 278.904 231.985 278.863 232.12C278.566 232.917 277.769 233.242 277.242 233.242C276.959 233.242 276.688 233.147 276.405 233.025C275.864 232.809 275.716 232.809 275.54 232.809Z" fill="#355FB3"/>
<path d="M283.968 233.111C283.968 232.147 283.869 231.562 283.572 230.986C283.175 230.193 282.446 229.995 281.951 229.995C280.816 229.995 280.401 230.841 280.275 231.094C279.951 231.751 279.933 232.643 279.933 233.111C279.933 233.705 279.96 234.615 280.392 235.336C280.807 236.002 281.473 236.173 281.951 236.173C282.383 236.173 283.157 236.038 283.608 235.146C283.941 234.498 283.968 233.696 283.968 233.111ZM281.951 235.921C281.644 235.921 281.023 235.777 280.834 234.831C280.735 234.318 280.735 233.471 280.735 233.003C280.735 232.382 280.735 231.751 280.834 231.256C281.023 230.337 281.725 230.247 281.951 230.247C282.257 230.247 282.878 230.4 283.058 231.22C283.166 231.715 283.166 232.391 283.166 233.003C283.166 233.534 283.166 234.345 283.058 234.849C282.869 235.795 282.248 235.921 281.951 235.921Z" fill="#355FB3"/>
<path d="M290.917 231.798C290.925 231.372 290.973 231.035 291.062 230.788C291.152 230.541 291.335 230.267 291.61 229.966L292.314 229.241C292.615 228.901 292.765 228.536 292.765 228.146C292.765 227.77 292.667 227.476 292.47 227.265C292.273 227.05 291.986 226.942 291.61 226.942C291.245 226.942 290.951 227.039 290.729 227.232C290.507 227.426 290.396 227.685 290.396 228.011H289.403C289.41 227.431 289.616 226.964 290.021 226.609C290.429 226.251 290.959 226.072 291.61 226.072C292.287 226.072 292.813 226.255 293.189 226.62C293.569 226.982 293.759 227.479 293.759 228.113C293.759 228.74 293.469 229.358 292.889 229.966L292.303 230.546C292.042 230.836 291.911 231.254 291.911 231.798H290.917ZM290.875 233.5C290.875 233.339 290.923 233.205 291.02 233.098C291.12 232.987 291.267 232.931 291.46 232.931C291.653 232.931 291.8 232.987 291.9 233.098C292.001 233.205 292.051 233.339 292.051 233.5C292.051 233.662 292.001 233.796 291.9 233.903C291.8 234.007 291.653 234.059 291.46 234.059C291.267 234.059 291.12 234.007 291.02 233.903C290.923 233.796 290.875 233.662 290.875 233.5Z" fill="black"/>
<rect x="262.5" y="219.5" width="59" height="47" rx="1.5" stroke="black"/>
<path d="M290.917 255.798C290.925 255.372 290.973 255.035 291.062 254.788C291.152 254.541 291.335 254.267 291.61 253.966L292.314 253.241C292.615 252.901 292.765 252.536 292.765 252.146C292.765 251.77 292.667 251.476 292.47 251.265C292.273 251.05 291.986 250.942 291.61 250.942C291.245 250.942 290.951 251.039 290.729 251.232C290.507 251.426 290.396 251.685 290.396 252.011H289.403C289.41 251.431 289.616 250.964 290.021 250.609C290.429 250.251 290.959 250.072 291.61 250.072C292.287 250.072 292.813 250.255 293.189 250.62C293.569 250.982 293.759 251.479 293.759 252.113C293.759 252.74 293.469 253.358 292.889 253.966L292.303 254.546C292.042 254.836 291.911 255.254 291.911 255.798H290.917ZM290.875 257.5C290.875 257.339 290.923 257.205 291.02 257.098C291.12 256.987 291.267 256.931 291.46 256.931C291.653 256.931 291.8 256.987 291.9 257.098C292.001 257.205 292.051 257.339 292.051 257.5C292.051 257.662 292.001 257.796 291.9 257.903C291.8 258.007 291.653 258.059 291.46 258.059C291.267 258.059 291.12 258.007 291.02 257.903C290.923 257.796 290.875 257.662 290.875 257.5Z" fill="black"/>
<path d="M301.54 256.809C301.443 256.809 301.345 256.629 301.411 256.558C301.875 256.06 302.298 255.684 302.864 255.175C303.675 254.472 304.026 254.134 304.215 253.932C305.161 253 305.633 252.216 305.633 252.108C305.633 252 305.525 252 305.498 252C305.404 252 305.377 252.054 305.309 252.149C304.971 252.73 304.647 253.013 304.296 253.013C304.012 253.013 303.864 252.892 303.607 252.567C303.323 252.23 303.094 252 302.702 252C301.716 252 301.121 253.229 301.121 253.513C301.121 253.554 301.135 253.635 301.256 253.635C301.364 253.635 301.378 253.581 301.418 253.486C301.648 252.946 302.297 252.851 302.553 252.851C302.837 252.851 303.107 252.946 303.391 253.067C303.904 253.283 304.12 253.283 304.255 253.283C304.327 253.283 304.377 253.38 304.328 253.433C303.88 253.927 303.235 254.501 302.688 254.999L301.324 256.255C300.5 257.093 300 257.89 300 257.985C300 258.066 300.068 258.093 300.149 258.093C300.23 258.093 300.243 258.079 300.338 257.917C300.554 257.579 300.986 257.08 301.486 257.08C301.77 257.08 301.905 257.174 302.175 257.512C302.432 257.809 302.661 258.093 303.094 258.093C304.418 258.093 305.174 256.377 305.174 256.066C305.174 256.012 305.161 255.931 305.025 255.931C304.917 255.931 304.904 255.985 304.863 256.12C304.566 256.917 303.769 257.242 303.242 257.242C302.959 257.242 302.688 257.147 302.405 257.025C301.864 256.809 301.716 256.809 301.54 256.809Z" fill="#B33535"/>
<path d="M308.392 254.247C308.392 253.956 308.023 254.124 307.772 254.272C307.477 254.447 307.103 254.552 306.577 254.569C306.495 254.572 306.429 254.638 306.429 254.72C306.429 254.802 306.495 254.869 306.577 254.867C306.676 254.865 306.795 254.859 306.928 254.841C307.291 254.793 307.68 255.045 307.68 255.411V259.245C307.68 259.579 307.653 259.687 306.798 259.687H306.626C306.547 259.687 306.483 259.751 306.483 259.83C306.483 259.913 306.553 259.979 306.636 259.975C307.037 259.957 307.676 259.957 308.032 259.957C308.387 259.957 309.033 259.957 309.436 259.975C309.519 259.979 309.59 259.913 309.59 259.83C309.59 259.751 309.526 259.687 309.447 259.687H309.274C308.419 259.687 308.392 259.579 308.392 259.245V254.247Z" fill="#B33535"/>
<path d="M275.135 257.863C275.716 257.201 276.189 256.783 276.864 256.175C277.675 255.472 278.026 255.134 278.215 254.932C279.161 254 279.633 253.216 279.633 253.108C279.633 253 279.525 253 279.498 253C279.404 253 279.377 253.054 279.309 253.149C278.971 253.73 278.647 254.013 278.296 254.013C278.012 254.013 277.864 253.892 277.607 253.567C277.323 253.23 277.094 253 276.702 253C275.716 253 275.121 254.229 275.121 254.513C275.121 254.554 275.135 254.635 275.256 254.635C275.364 254.635 275.378 254.581 275.418 254.486C275.648 253.946 276.297 253.851 276.553 253.851C276.837 253.851 277.107 253.946 277.391 254.067C277.904 254.283 278.12 254.283 278.255 254.283C278.35 254.283 278.404 254.283 278.472 254.27C278.026 254.797 277.296 255.445 276.688 255.999L275.324 257.255C274.5 258.093 274 258.89 274 258.985C274 259.066 274.068 259.093 274.149 259.093C274.23 259.093 274.243 259.079 274.338 258.917C274.554 258.579 274.986 258.08 275.486 258.08C275.77 258.08 275.905 258.174 276.175 258.512C276.432 258.809 276.661 259.093 277.094 259.093C278.418 259.093 279.174 257.377 279.174 257.066C279.174 257.012 279.161 256.931 279.025 256.931C278.917 256.931 278.904 256.985 278.863 257.12C278.566 257.917 277.769 258.242 277.242 258.242C276.959 258.242 276.688 258.147 276.405 258.025C275.864 257.809 275.716 257.809 275.54 257.809C275.405 257.809 275.256 257.809 275.135 257.863Z" fill="#22661E"/>
<path d="M282.104 259.147C282.248 259.012 282.626 258.714 282.77 258.588C283.329 258.075 283.86 257.58 283.86 256.76C283.86 255.688 282.959 254.995 281.833 254.995C280.753 254.995 280.041 255.814 280.041 256.616C280.041 257.057 280.392 257.12 280.519 257.12C280.708 257.12 280.987 256.985 280.987 256.643C280.987 256.175 280.537 256.175 280.429 256.175C280.69 255.517 281.293 255.292 281.734 255.292C282.572 255.292 283.004 256.004 283.004 256.76C283.004 257.697 282.347 258.381 281.284 259.471L280.149 260.642C280.041 260.741 280.041 260.759 280.041 260.984H283.599L283.86 259.372H283.581C283.554 259.552 283.482 260.002 283.374 260.173C283.32 260.245 282.635 260.245 282.491 260.245H280.888L282.104 259.147Z" fill="#22661E"/>
<rect x="502.5" y="219.5" width="29" height="47" rx="1.5" stroke="black"/>
<path d="M517.35 229.918C516.269 230.134 515.189 230.445 514.297 231.147C513.081 232.106 513 233.457 513 233.525C513 233.741 513.149 233.822 513.27 233.822C513.5 233.822 513.54 233.606 513.554 233.484C513.648 232.849 513.905 231.471 516.337 230.715C517.728 230.282 519.444 230.201 520.862 230.188C520.998 230.188 521.254 230.188 521.254 229.918C521.254 229.648 521.079 229.648 520.579 229.648C518.687 229.634 515.742 229.391 514.405 228.067C513.716 227.378 513.621 226.743 513.554 226.324C513.54 226.243 513.5 226 513.27 226C513.149 226 513 226.095 513 226.297C513 226.486 513.135 227.148 513.405 227.621C513.932 228.553 514.932 229.458 517.35 229.918ZM513.473 235.902C513.243 235.902 513 235.902 513 236.173C513 236.443 513.243 236.443 513.473 236.443H520.781C521.011 236.443 521.254 236.443 521.254 236.173C521.254 235.902 521.011 235.902 520.781 235.902H513.473Z" fill="black"/>
<path d="M516.904 252.918C519.147 252.499 520.295 251.661 520.889 250.567C521.16 250.054 521.254 249.419 521.254 249.297C521.254 249.095 521.106 249 520.984 249C520.754 249 520.714 249.216 520.687 249.392C520.295 251.823 517.566 252.621 513.392 252.648C513.257 252.648 513 252.648 513 252.918C513 253.188 513.176 253.188 513.675 253.188C515.08 253.201 516.485 253.296 517.836 253.688C520.39 254.444 520.619 255.917 520.7 256.525C520.727 256.673 520.808 256.822 520.984 256.822C521.106 256.822 521.254 256.741 521.254 256.525C521.254 256.444 521.173 255.093 519.944 254.134C519.093 253.472 518.093 253.147 516.904 252.918ZM513.473 258.902C513.243 258.902 513 258.902 513 259.173C513 259.443 513.243 259.443 513.473 259.443H520.781C521.011 259.443 521.254 259.443 521.254 259.173C521.254 258.902 521.011 258.902 520.781 258.902H513.473Z" fill="black"/>
</svg>
